<?xml version="1.0" standalone="no"?>
<!DOCTYPE svg PUBLIC "-//W3C//DTD SVG 20010904//EN"
 "http://www.w3.org/TR/2001/REC-SVG-20010904/DTD/svg10.dtd">
<svg version="1.0" xmlns="http://www.w3.org/2000/svg"
 width="16.000000pt" height="16.000000pt" viewBox="0 0 16.000000 16.000000"
 preserveAspectRatio="xMidYMid meet">
<metadata>
Created by potrace 1.11, written by Peter Selinger 2001-2013
</metadata>
<g transform="translate(0.000000,16.000000) scale(0.002222,-0.002222)"
fill="#000000" stroke="none">
<path d="M5032 6134 c16 -16 16 -18 0 -31 -15 -12 -14 -13 6 -3 20 10 24 9 29
-9 3 -11 10 -18 16 -14 6 4 7 1 2 -7 -6 -10 -11 -9 -21 5 -12 16 -13 16 -11
-2 1 -16 7 -20 29 -18 15 1 27 0 26 -4 -3 -24 5 -38 25 -47 12 -6 16 -9 10 -7
-7 1 -13 -2 -13 -7 0 -9 15 -14 23 -7 2 1 11 -4 21 -12 13 -11 14 -16 4 -29
-11 -13 -10 -14 10 -8 17 6 21 4 16 -9 -4 -9 -3 -15 2 -14 5 1 17 -1 26 -5 17
-8 17 -9 0 -25 -10 -9 -11 -11 -3 -6 12 8 13 6 7 -10 -6 -16 -5 -18 5 -7 15
14 33 16 25 3 -3 -5 1 -14 10 -21 8 -7 12 -20 9 -28 -5 -13 -3 -13 12 -1 9 8
14 9 10 3 -4 -7 0 -17 8 -24 7 -6 11 -18 8 -26 -3 -8 -1 -14 5 -14 6 0 12 6
15 13 3 6 4 2 4 -10 -1 -12 -4 -20 -7 -18 -4 2 -7 -2 -7 -9 0 -8 9 -12 21 -10
12 3 15 2 9 -2 -7 -3 -13 -10 -13 -15 0 -6 5 -7 10 -4 6 3 10 1 10 -4 0 -6 -5
-11 -12 -11 -6 0 -8 -3 -4 -7 4 -5 15 1 23 12 9 12 14 14 10 5 -6 -20 29 -66
36 -48 4 9 6 10 6 1 1 -6 -3 -15 -9 -18 -6 -4 -5 -13 2 -25 9 -15 16 -16 31
-8 14 7 17 7 13 -1 -4 -6 0 -14 8 -17 9 -3 16 -11 16 -17 0 -5 -8 -3 -18 6
-15 14 -19 15 -19 2 0 -8 4 -12 8 -9 4 2 16 -7 26 -20 17 -22 20 -22 30 -8 10
15 11 15 8 -3 -3 -25 12 -55 28 -55 8 0 7 4 -3 10 -8 5 -12 12 -8 15 3 3 13
-1 22 -10 11 -11 16 -12 16 -4 0 7 3 9 6 6 4 -4 1 -14 -7 -24 -12 -15 -12 -16
4 -10 24 9 58 -9 51 -27 -3 -8 0 -17 7 -22 7 -4 10 -3 5 4 -13 22 16 23 35 1
10 -12 19 -19 19 -15 0 4 13 -2 29 -14 l30 -20 -26 62 c-20 52 -41 111 -48
138 -29 114 -85 235 -131 286 -19 20 -31 41 -27 47 3 6 1 7 -5 3 -6 -3 -35 12
-64 34 -29 22 -57 40 -61 40 -5 0 -5 5 -1 12 4 7 3 8 -4 4 -16 -10 -54 12 -46
26 4 6 3 8 -4 4 -11 -6 -144 52 -150 67 -2 4 -8 5 -13 1 -5 -3 -9 -1 -9 4 0 5
-6 9 -12 9 -7 0 -29 7 -48 15 -19 8 -48 21 -65 27 -28 12 -29 12 -13 -5z m413
-532 c-3 -3 -11 0 -18 7 -9 10 -8 11 6 5 10 -3 15 -9 12 -12z m65 -62 c0 -5
-2 -10 -4 -10 -3 0 -8 5 -11 10 -3 6 -1 10 4 10 6 0 11 -4 11 -10z"/>
<path d="M2015 6100 c-11 -4 -23 -6 -27 -3 -5 2 -8 0 -8 -6 0 -6 -7 -8 -15 -5
-8 4 -15 2 -15 -4 0 -16 -31 -23 -47 -10 -11 9 -13 8 -11 -3 2 -8 -4 -13 -14
-13 -10 1 -18 -5 -18 -13 0 -8 -4 -12 -9 -8 -5 3 -12 1 -16 -5 -4 -7 -12 -7
-25 0 -25 13 -40 12 -17 -1 18 -10 18 -11 0 -24 -15 -11 -21 -11 -35 2 -15 13
-16 13 -11 -5 3 -15 -1 -22 -19 -27 -12 -4 -30 -14 -40 -22 -14 -13 -18 -12
-28 4 -10 16 -11 16 -7 -5 6 -25 -26 -51 -38 -32 -8 14 -35 -6 -35 -26 0 -7
-6 -11 -14 -8 -8 3 -17 0 -21 -5 -3 -6 -10 -9 -15 -6 -5 3 -11 1 -14 -4 -7
-10 13 -9 31 2 6 4 14 3 18 -3 3 -5 5 -10 3 -11 -5 -1 -53 -10 -66 -13 -7 -1
-12 -5 -12 -9 0 -4 0 -10 0 -13 0 -4 6 -1 14 5 10 8 16 9 21 1 3 -5 4 -11 1
-11 -3 -1 -10 -3 -16 -4 -5 -1 -15 -3 -21 -4 -5 0 -8 -5 -5 -10 3 -4 -1 -17
-9 -27 -12 -15 -14 -15 -9 -3 3 10 0 20 -6 24 -6 3 -10 3 -9 -2 3 -20 -2 -34
-11 -28 -5 3 -7 0 -4 -9 3 -8 13 -12 22 -9 15 4 15 3 2 -6 -8 -6 -23 -11 -32
-11 -9 0 -20 -4 -23 -10 -3 -5 0 -7 8 -4 8 3 18 0 23 -7 4 -7 3 -10 -3 -6 -17
10 -39 -21 -25 -35 8 -8 8 -17 1 -30 -5 -10 -7 -18 -3 -18 3 0 -1 -11 -10 -25
-9 -14 -14 -25 -10 -25 4 0 1 -7 -6 -15 -6 -8 -9 -19 -5 -24 3 -6 -3 -16 -15
-23 -11 -7 -20 -19 -20 -27 0 -9 -4 -10 -13 -5 -7 5 -5 2 5 -8 25 -22 23 -31
-4 -18 -23 11 -23 11 1 -9 13 -12 18 -21 12 -21 -7 0 -9 -5 -5 -12 4 -7 3 -8
-5 -4 -6 4 -9 12 -6 17 4 5 1 9 -5 9 -6 0 -8 -10 -4 -25 4 -17 2 -25 -7 -25
-7 0 -9 -3 -6 -6 4 -4 14 -1 23 7 16 13 16 12 1 -17 -9 -17 -14 -34 -11 -37 3
-3 1 -14 -5 -25 -7 -13 -7 -23 2 -32 10 -10 7 -10 -13 0 -24 13 -24 12 -10 -5
14 -17 13 -18 -2 -13 -22 9 -30 -2 -15 -20 6 -9 7 -13 1 -9 -6 3 -18 -3 -28
-14 -24 -29 -47 -9 -40 34 7 49 12 78 18 127 9 60 13 73 48 155 31 69 76 147
91 153 4 2 5 8 1 13 -3 5 0 9 5 9 6 0 11 6 11 14 0 8 3 16 8 18 4 2 19 22 34
44 l27 42 -32 -16 c-18 -9 -40 -15 -49 -14 -10 2 -18 -2 -18 -8 0 -6 6 -8 13
-4 6 4 9 3 4 -1 -13 -15 -50 -16 -59 -3 -5 8 -6 1 -2 -17 6 -29 6 -29 -9 -10
-8 11 -19 17 -23 12 -4 -4 -1 -7 7 -7 8 -1 3 -7 -11 -16 l-25 -15 25 6 c19 5
22 4 10 -4 -8 -6 -23 -11 -34 -11 -12 0 -16 -5 -12 -16 3 -8 2 -12 -4 -9 -6 3
-10 1 -10 -6 0 -7 -7 -4 -15 7 -14 18 -14 18 -8 -4 7 -30 -14 -57 -33 -41 -17
14 -18 -2 -2 -20 7 -7 9 -12 3 -11 -5 2 -21 2 -35 1 -22 -1 -23 -3 -7 -12 9
-5 17 -15 17 -22 0 -8 -4 -7 -9 2 -13 21 -38 -2 -36 -31 1 -13 -3 -29 -9 -37
-6 -8 -10 -16 -8 -18 1 -1 0 -3 -3 -3 -3 0 -8 0 -12 0 -3 0 2 9 12 20 10 11
13 20 7 20 -7 0 -12 -5 -12 -11 0 -5 -4 -8 -9 -4 -6 3 -8 -4 -6 -15 2 -11 -3
-27 -11 -35 -9 -8 -11 -15 -7 -15 11 0 11 -66 0 -76 -11 -12 -8 -26 5 -18 7 4
8 3 4 -5 -4 -6 -12 -9 -17 -6 -10 7 -8 33 4 53 5 7 4 12 -2 12 -12 0 -12 0
-16 -47 -1 -18 2 -33 6 -33 5 0 5 -7 2 -17 -5 -12 -3 -14 8 -8 12 8 12 6 0 -8
-15 -19 -26 -23 -15 -5 4 7 3 8 -4 4 -17 -10 -15 -26 3 -26 8 0 15 -4 15 -9 0
-5 -10 -7 -22 -3 l-22 5 22 -23 c21 -23 21 -40 -1 -40 -8 0 -8 3 1 9 11 7 11
9 -1 14 -10 4 -14 0 -12 -11 2 -9 4 -20 4 -24 1 -4 9 -5 19 -2 15 5 15 4 -2
-10 -10 -8 -23 -13 -27 -10 -5 3 -9 0 -9 -6 0 -8 9 -10 25 -6 l26 7 -21 -21
c-11 -11 -26 -18 -33 -14 -9 5 -9 4 0 -6 10 -11 15 -11 29 1 16 13 16 12 5 -8
-10 -21 -8 -27 10 -25 3 1 6 -5 6 -13 0 -8 -4 -12 -8 -9 -4 2 -13 -6 -20 -18
-11 -20 -11 -22 3 -10 13 10 18 10 24 1 4 -7 3 -9 -3 -6 -12 8 -22 -12 -16
-31 3 -6 10 -9 16 -5 7 4 6 -1 -2 -10 -7 -9 -10 -25 -6 -34 8 -21 7 -23 -2
-23 -5 0 -8 4 -8 9 0 5 -2 12 -5 15 -3 3 -5 -10 -5 -29 0 -18 3 -31 8 -28 4 2
7 -3 7 -12 0 -9 4 -14 9 -11 19 12 0 -49 -21 -67 l-23 -18 23 11 c13 6 28 9
35 6 9 -3 9 -5 0 -5 -7 -1 -13 -6 -13 -11 0 -6 5 -9 11 -8 16 4 23 -73 7 -85
-9 -6 -8 -7 6 -3 14 5 17 2 12 -10 -3 -8 -6 -18 -6 -20 0 -3 -6 -2 -12 2 -8 5
-7 0 2 -11 12 -15 12 -17 1 -10 -11 6 -13 4 -8 -8 4 -11 1 -15 -12 -12 -15 3
-18 -3 -16 -30 1 -19 -2 -32 -6 -29 -4 2 -9 0 -11 -6 -1 -5 -4 32 -5 82 -2 51
-5 111 -8 133 -3 22 -7 56 -9 75 -2 19 -7 62 -12 95 -16 115 -10 304 11 372
10 34 22 60 25 58 3 -2 6 7 6 20 2 22 -1 20 -36 -15 -21 -21 -41 -36 -44 -33
-3 3 -1 12 5 20 6 7 8 13 4 13 -4 0 -1 8 6 18 13 15 12 16 -4 3 -9 -8 -15 -16
-12 -19 3 -3 -3 -14 -12 -25 -10 -11 -13 -17 -7 -14 7 4 14 0 18 -8 3 -8 0
-14 -7 -12 -7 1 -11 -3 -10 -10 2 -7 -4 -10 -13 -6 -13 5 -13 7 -2 14 9 6 9 9
1 9 -16 0 -26 -17 -13 -25 15 -9 -7 -45 -24 -39 -7 3 -16 -2 -19 -10 -4 -11
-1 -13 11 -10 14 5 15 4 2 -5 -8 -6 -11 -11 -6 -11 5 0 2 -8 -7 -18 -10 -10
-14 -22 -10 -27 5 -4 2 -5 -5 -1 -11 6 -10 11 3 26 15 16 15 18 0 24 -24 9
-32 7 -15 -4 12 -8 11 -12 -6 -32 -22 -23 -22 -54 -1 -41 7 3 4 -3 -6 -15 -11
-12 -16 -26 -11 -33 5 -9 1 -11 -15 -6 -18 4 -20 3 -10 -9 6 -8 8 -14 3 -14
-5 0 -2 -4 6 -10 8 -5 11 -12 7 -16 -3 -4 -14 -1 -24 7 -15 13 -15 12 -1 -11
9 -14 14 -36 13 -50 -2 -14 -4 -29 -4 -33 -1 -5 -5 -5 -11 -2 -5 3 -10 1 -10
-4 0 -10 14 -15 33 -12 5 1 6 -3 2 -9 -3 -6 -11 -8 -16 -5 -10 7 -7 -24 4 -42
6 -9 3 -11 -7 -7 -9 3 -16 1 -16 -5 0 -10 14 -15 33 -12 5 1 5 -3 2 -9 -4 -6
-13 -9 -20 -6 -8 3 -19 -2 -26 -10 -7 -8 -8 -14 -3 -13 5 1 20 1 34 0 19 -1
22 -3 10 -10 -8 -6 -18 -7 -23 -4 -5 3 -4 -4 3 -17 6 -12 9 -27 7 -34 -3 -7 1
-23 9 -37 7 -13 13 -18 14 -10 0 8 3 12 6 8 3 -3 3 -11 -1 -17 -5 -8 -11 -8
-21 1 -12 10 -13 9 -8 -5 6 -14 17 -20 36 -17 9 1 4 -27 -7 -36 -4 -4 -5 -3
-1 4 3 6 1 15 -5 19 -7 4 -9 3 -5 -4 3 -6 2 -13 -4 -17 -6 -4 -8 -11 -4 -16 3
-5 10 -6 16 -3 7 5 9 1 5 -9 -4 -10 -1 -17 6 -17 7 -1 1 -10 -12 -20 -25 -22
-21 -26 9 -10 16 8 18 8 14 -5 -4 -8 -11 -15 -18 -15 -7 0 -7 -3 -1 -8 12 -8
18 -28 18 -59 1 -13 5 -23 10 -23 5 0 6 8 2 18 -5 13 -4 14 6 5 10 -10 9 -16
-1 -28 -11 -13 -10 -15 2 -10 12 5 14 0 11 -22 -3 -19 -2 -24 5 -15 7 11 10
11 15 -3 5 -11 3 -14 -5 -9 -8 5 -9 2 -4 -11 5 -14 4 -16 -7 -7 -10 9 -14 8
-14 -3 0 -7 3 -14 6 -13 18 2 31 -3 31 -12 0 -5 -8 -7 -17 -3 -12 4 -9 -1 7
-15 25 -22 25 -22 5 -38 -19 -16 -19 -16 5 -9 23 7 24 7 10 -10 -14 -17 -13
-18 3 -12 13 5 16 3 10 -6 -10 -17 -12 -57 -1 -51 4 3 6 9 3 14 -3 5 -1 11 4
14 5 3 7 -16 6 -44 -3 -41 0 -50 13 -51 10 -1 7 -4 -8 -9 -22 -7 -23 -8 -4 -9
25 -1 49 -25 40 -40 -4 -5 -2 -12 4 -16 6 -4 8 -11 5 -16 -4 -5 -2 -9 4 -9 5
0 13 -15 17 -32 6 -31 9 -26 30 54 42 157 116 294 216 400 16 16 28 31 28 34
0 4 9 16 20 28 10 11 35 41 55 66 19 25 40 50 45 57 12 15 63 116 84 166 24
59 65 267 52 267 -2 0 -16 -21 -31 -46 -26 -45 -27 -45 -48 -27 -21 18 -21 18
-4 -7 24 -34 21 -47 -4 -19 -11 13 -18 19 -15 12 4 -6 3 -13 -1 -16 -5 -2 -2
-2 5 -1 6 2 12 -1 12 -6 0 -6 -5 -10 -11 -10 -5 0 -7 -4 -4 -10 3 -5 1 -10 -4
-10 -6 0 -11 6 -11 13 0 8 -4 7 -10 -3 -14 -22 -12 -30 8 -23 11 3 9 -1 -6
-12 -13 -9 -26 -14 -29 -11 -10 10 -32 -15 -26 -30 3 -8 0 -14 -6 -14 -7 0
-28 -16 -47 -36 -31 -30 -38 -33 -52 -22 -12 10 -14 10 -8 1 4 -7 2 -13 -3
-13 -6 0 -11 -7 -11 -16 0 -13 -5 -11 -21 7 -11 13 -17 17 -13 9 15 -28 14
-42 -2 -29 -8 6 -17 9 -21 5 -3 -3 -2 -6 4 -6 6 0 14 -7 17 -16 3 -8 2 -13 -3
-10 -11 7 -33 -19 -24 -28 4 -4 -1 -4 -11 0 -12 4 -17 4 -13 -2 3 -5 -3 -10
-14 -10 -10 0 -19 4 -19 8 0 4 5 8 11 8 5 0 7 4 4 10 -9 14 24 72 37 64 7 -5
8 -3 3 5 -9 15 14 63 26 55 5 -3 6 2 3 10 -3 9 -1 16 5 16 6 0 11 6 11 13 1
16 92 104 155 148 73 51 79 55 71 38 -4 -8 1 -3 12 10 13 16 24 21 33 16 8 -5
11 -4 6 0 -9 11 43 46 56 38 6 -3 7 -1 3 5 -4 7 -2 12 3 12 13 0 50 30 103 83
76 76 127 196 144 337 l5 45 -26 -33 c-34 -42 -64 -59 -60 -34 1 9 0 11 -2 4
-4 -11 -8 -11 -21 0 -11 9 -10 5 4 -17 10 -16 14 -26 8 -23 -11 7 -46 -26 -37
-35 3 -3 -4 -3 -16 0 -15 4 -21 1 -21 -11 0 -9 -5 -16 -11 -16 -5 0 -8 -4 -4
-9 3 -5 0 -13 -6 -17 -7 -4 -9 -3 -5 4 4 7 -1 10 -14 9 -11 -1 -20 -7 -20 -14
0 -11 -5 -11 -22 -2 -23 12 -23 12 -4 -9 18 -21 18 -21 -13 -12 -18 5 -29 5
-26 0 3 -5 -4 -14 -15 -20 -11 -6 -20 -18 -20 -26 0 -8 -5 -12 -10 -9 -6 4 -8
11 -5 16 4 5 1 9 -5 9 -7 0 -9 -8 -5 -19 3 -11 -1 -24 -12 -32 -11 -9 -14 -10
-9 -1 4 7 2 12 -7 12 -8 0 -18 -7 -21 -16 -3 -8 -2 -12 3 -9 5 3 13 1 16 -5 4
-6 3 -10 -2 -9 -19 3 -34 -2 -29 -9 3 -5 -1 -9 -9 -9 -11 0 -12 5 -4 20 6 10
8 21 5 24 -5 6 7 15 69 55 10 7 33 25 50 41 16 15 38 30 48 33 9 3 15 10 12
15 -4 5 -2 9 3 9 22 0 122 111 184 202 39 59 111 159 133 185 45 52 119 135
163 181 29 30 51 56 50 57 -2 1 -12 -1 -23 -5z m-413 -202 c-7 -7 -12 -8 -12
-2 0 14 12 26 19 19 2 -3 -1 -11 -7 -17z m-172 -212 c0 -3 -4 -8 -10 -11 -5
-3 -10 -1 -10 4 0 6 5 11 10 11 6 0 10 -2 10 -4z m-313 -121 c0 -8 -4 -12 -9
-9 -5 3 -6 10 -3 15 9 13 12 11 12 -6z m-50 -117 c2 -17 0 -19 -7 -8 -5 8 -6
18 -4 22 8 12 10 10 11 -14z m397 -63 c-10 -8 -23 -15 -28 -15 -6 0 -1 7 10
15 10 8 23 15 28 15 6 0 1 -7 -10 -15z m-230 -201 c6 2 8 1 4 -1 -5 -3 -8 -11
-8 -20 0 -13 -2 -13 -15 1 -8 8 -15 20 -15 27 0 10 3 10 11 2 6 -6 17 -10 23
-9z m-434 -4 c0 -5 -5 -10 -11 -10 -5 0 -7 5 -4 10 3 6 8 10 11 10 2 0 4 -4 4
-10z m410 -30 c0 -5 -4 -10 -10 -10 -5 0 -10 5 -10 10 0 6 5 10 10 10 6 0 10
-4 10 -10z m-180 -250 c0 -5 -2 -10 -4 -10 -3 0 -8 5 -11 10 -3 6 -1 10 4 10
6 0 11 -4 11 -10z m304 2 c3 -5 -1 -9 -9 -9 -8 0 -12 4 -9 9 3 4 7 8 9 8 2 0
6 -4 9 -8z m-528 -363 c1 -19 -1 -26 -6 -19 -4 7 -6 20 -5 29 7 32 10 29 11
-10z"/>
<path d="M1770 6009 c0 -5 5 -7 10 -4 6 3 10 8 10 11 0 2 -4 4 -10 4 -5 0 -10
-5 -10 -11z"/>
<path d="M1697 5990 c-8 -11 -16 -18 -19 -15 -2 3 -5 -2 -5 -10 0 -21 3 -19
27 15 12 17 19 30 16 30 -3 0 -11 -9 -19 -20z"/>
<path d="M5156 5962 c-3 -5 1 -9 9 -9 8 0 12 4 9 9 -3 4 -7 8 -9 8 -2 0 -6 -4
-9 -8z"/>
<path d="M1618 5943 c6 -2 10 -9 7 -14 -4 -5 1 -6 10 -2 13 5 14 7 3 14 -7 5
-17 8 -23 8 -5 0 -4 -3 3 -6z"/>
<path d="M5210 5900 c0 -5 5 -10 11 -10 5 0 7 5 4 10 -3 6 -8 10 -11 10 -2 0
-4 -4 -4 -10z"/>
<path d="M5250 5840 c0 -5 5 -10 11 -10 5 0 7 -5 3 -12 -4 -7 -3 -8 5 -4 9 6
9 11 0 22 -14 17 -19 18 -19 4z"/>
<path d="M5630 5839 c0 -6 7 -17 15 -25 18 -19 20 -48 3 -38 -8 5 -7 0 2 -11
8 -10 14 -20 13 -21 -5 -8 10 -34 19 -34 7 0 6 5 -1 13 -8 10 -7 14 3 14 17 0
14 -26 -5 -38 -20 -13 -2 -11 24 2 12 7 19 8 15 4 -4 -5 -3 -14 3 -22 8 -8 8
-13 1 -13 -6 0 -12 5 -14 12 -3 7 -7 5 -11 -6 -4 -10 -3 -15 3 -11 6 3 10 1
10 -5 0 -6 6 -10 14 -8 8 2 15 -1 16 -7 1 -5 9 -18 18 -29 9 -10 16 -20 15
-22 -8 -12 -1 -24 9 -18 7 4 8 3 4 -5 -4 -6 -13 -9 -19 -5 -7 3 -3 -2 7 -10
11 -9 16 -16 12 -16 -5 0 -1 -11 8 -25 19 -29 20 -35 5 -35 -5 0 -7 4 -4 10 4
6 -1 7 -11 3 -16 -6 -15 -8 5 -17 16 -7 21 -16 18 -32 -3 -17 0 -21 15 -19 10
2 16 0 12 -6 -3 -5 0 -17 8 -26 8 -10 8 -14 1 -10 -16 10 -26 -9 -18 -33 4
-12 11 -17 18 -13 8 4 7 1 -1 -9 -19 -23 -24 -58 -7 -52 18 7 30 -15 16 -29
-9 -9 -11 -7 -5 8 6 16 4 18 -6 8 -11 -10 -11 -15 0 -27 7 -9 16 -14 19 -11 4
2 8 -2 8 -10 0 -8 -4 -12 -9 -9 -4 3 -8 1 -8 -5 0 -5 6 -11 13 -14 6 -2 9 -8
5 -12 -10 -10 -68 58 -63 73 3 7 0 10 -5 7 -11 -7 -77 63 -72 77 1 4 -1 7 -5
6 -11 -4 -103 63 -103 74 0 5 -5 6 -11 2 -8 -4 -9 1 -5 17 6 20 5 21 -4 7 -10
-16 -13 -15 -47 7 -20 14 -40 25 -45 25 -6 0 -8 7 -5 14 4 11 1 13 -10 9 -12
-5 -14 -3 -8 7 6 9 4 11 -4 5 -14 -8 -73 43 -65 57 3 5 0 7 -7 6 -6 -2 -26 16
-43 39 -17 23 -34 42 -38 42 -3 1 -4 -14 -2 -31 3 -29 3 -30 -6 -10 -8 19 -30
23 -30 6 0 -3 5 -2 10 1 6 3 10 -3 10 -14 0 -11 -4 -23 -10 -26 -5 -3 -10 -12
-10 -18 0 -7 5 -4 11 6 5 9 15 17 22 17 8 0 8 -3 2 -8 -5 -4 -15 -16 -21 -27
-15 -28 5 -58 32 -49 14 4 16 3 5 -4 -7 -5 -10 -15 -6 -21 4 -7 1 -19 -6 -27
-10 -12 -9 -13 3 -9 8 3 21 -1 28 -10 7 -8 9 -15 5 -15 -4 0 -3 -6 2 -12 5 -7
9 -20 8 -28 -1 -16 34 -47 48 -42 5 1 6 -1 3 -6 -3 -5 6 -20 19 -32 22 -21 23
-25 10 -40 -13 -14 -13 -17 0 -17 8 0 12 4 9 9 -10 16 24 8 37 -9 13 -17 13
-17 -6 -3 -18 14 -19 13 -8 -1 7 -9 9 -19 5 -24 -4 -4 3 -2 16 4 18 10 22 9
22 -4 0 -14 12 -20 33 -16 5 1 7 -4 4 -11 -2 -7 -11 -11 -18 -10 -8 2 -10 0
-6 -4 11 -11 38 -14 32 -4 -3 5 -1 11 5 15 5 3 10 1 10 -6 0 -7 3 -10 6 -6 4
3 13 0 20 -8 19 -19 18 -30 -2 -14 -13 10 -17 10 -24 -2 -8 -13 -4 -74 7 -91
2 -4 -2 -5 -10 -2 -8 3 -17 -3 -21 -13 -3 -10 -9 -25 -12 -33 -4 -8 2 -4 13 9
15 19 22 21 28 11 5 -8 4 -11 -2 -7 -6 4 -14 0 -17 -9 -3 -8 -2 -12 3 -9 5 3
13 0 17 -6 4 -7 3 -9 -3 -6 -6 4 -19 0 -29 -8 -18 -13 -18 -14 5 -8 22 6 23 4
19 -26 -3 -22 -1 -30 7 -27 6 2 12 -2 12 -10 0 -9 -7 -13 -16 -9 -14 4 -14 3
1 -8 20 -16 28 -63 10 -59 -8 1 -11 -2 -7 -8 5 -8 13 -5 26 6 19 17 20 17 13
-1 -6 -14 -4 -16 6 -10 9 5 11 4 6 -4 -4 -6 -12 -9 -17 -6 -5 4 -9 1 -9 -4 0
-6 5 -12 10 -12 6 -1 14 -2 19 -3 5 0 13 -5 18 -10 5 -6 2 -6 -6 -1 -11 6 -13
4 -8 -7 3 -9 0 -22 -6 -29 -7 -7 -1 -5 12 6 24 20 24 20 13 -1 -11 -22 0 -55
12 -35 4 6 13 11 19 11 8 0 8 -3 2 -8 -16 -11 -41 -47 -28 -39 6 4 14 3 18 -2
3 -6 13 -7 23 -4 15 6 15 5 3 -10 -12 -15 -12 -17 3 -11 12 5 15 2 9 -12 -4
-12 -3 -15 5 -10 16 10 15 -7 0 -23 -11 -10 -10 -12 2 -9 8 2 14 -2 15 -9 0
-6 4 -15 9 -20 5 -4 6 -3 3 3 -4 7 0 17 7 23 12 10 14 8 12 -12 -2 -13 -6 -30
-10 -38 -4 -8 0 -4 9 8 15 20 18 20 34 6 19 -16 17 -58 -2 -46 -6 3 -7 1 -3
-5 4 -6 13 -9 21 -6 8 4 12 11 8 18 -4 6 2 4 13 -4 29 -22 30 -24 12 -17 -12
4 -18 1 -18 -9 0 -9 6 -14 13 -11 25 10 42 -11 46 -56 1 -5 5 -6 9 -3 5 3 17
-4 26 -16 16 -18 16 -20 2 -15 -19 7 -22 -9 -3 -17 10 -5 10 -7 0 -12 -7 -3
-13 -11 -13 -17 0 -8 4 -7 12 1 18 18 25 15 48 -20 l22 -33 -27 30 -26 30 17
-38 c14 -29 22 -36 38 -32 20 6 20 5 0 -7 -18 -10 -19 -15 -9 -25 7 -6 17 -9
21 -5 5 4 2 -1 -6 -11 -12 -17 -12 -18 4 -15 12 2 20 -4 21 -15 2 -9 -1 -15
-6 -11 -5 3 -6 10 -3 16 4 7 2 8 -4 4 -16 -10 -16 -11 19 -47 17 -18 25 -30
18 -27 -8 3 -20 -1 -28 -9 -12 -13 -11 -14 8 -8 20 6 21 5 12 -12 -8 -15 -7
-20 4 -20 8 0 12 4 9 8 -2 4 0 11 6 14 6 4 10 3 9 -2 -1 -4 0 -10 1 -13 1 -3
3 -13 5 -23 12 -65 28 -33 61 123 2 14 7 33 10 42 3 9 6 25 8 35 2 10 14 54
25 98 21 76 25 95 35 140 3 11 11 47 20 80 9 33 18 78 21 100 4 22 8 49 10 60
47 226 7 436 -113 595 -41 53 -106 119 -93 93 7 -13 9 -23 5 -23 -3 0 -1 -7 6
-15 7 -8 9 -15 5 -15 -4 0 -1 -8 6 -17 10 -11 10 -14 2 -9 -8 4 -13 2 -13 -8
0 -8 -8 -16 -17 -18 -15 -3 -14 -5 5 -10 12 -3 20 -2 17 2 -3 5 -1 11 4 14 5
4 8 -2 6 -11 -2 -10 -4 -21 -4 -25 -1 -4 -9 -4 -18 -1 -15 6 -16 5 -3 -9 8 -9
20 -13 25 -10 6 3 4 -2 -4 -12 -12 -15 -12 -17 0 -14 15 3 15 -4 3 -36 -5 -12
-4 -17 3 -13 5 3 10 0 10 -7 0 -8 -5 -12 -12 -10 -6 3 -11 -5 -12 -16 -1 -11
3 -20 8 -20 6 0 8 4 5 8 -3 5 1 9 9 9 11 0 12 -4 4 -13 -5 -6 -9 -16 -7 -20 1
-5 -2 -19 -6 -32 -6 -20 -10 -21 -24 -11 -14 10 -13 9 1 -7 15 -16 19 -17 27
-4 6 9 10 10 10 3 0 -7 -12 -19 -26 -26 -22 -12 -24 -15 -10 -20 10 -4 15 -3
11 3 -3 6 -2 10 4 10 5 0 9 -9 8 -20 -1 -23 -7 -25 -27 -7 -8 6 -6 2 5 -11 10
-13 20 -33 21 -45 2 -12 0 -17 -2 -10 -3 7 -12 9 -21 6 -12 -5 -11 -9 8 -19
13 -7 18 -13 10 -14 -8 0 -11 -6 -7 -16 4 -10 2 -13 -6 -8 -8 5 -9 2 -5 -10 4
-10 3 -15 -3 -11 -6 3 -10 2 -10 -4 0 -5 6 -11 13 -14 6 -2 9 -8 5 -12 -4 -4
-14 -2 -23 5 -10 8 -15 9 -15 1 0 -6 5 -11 10 -11 6 0 10 -5 10 -11 0 -5 -6
-7 -12 -3 -10 6 -10 5 -1 -7 7 -9 8 -20 3 -28 -4 -8 -6 -25 -4 -37 3 -19 1
-22 -13 -18 -15 5 -15 4 -3 -5 11 -7 20 -5 34 7 19 17 19 17 1 -10 -16 -26
-14 -33 9 -29 5 1 4 -4 -2 -12 -7 -8 -10 -16 -7 -19 3 -2 -2 -5 -10 -5 -12 0
-12 3 -2 16 10 14 10 14 -5 3 -17 -13 -14 -47 3 -36 5 3 9 -4 9 -15 0 -12 -5
-21 -12 -21 -6 0 -3 -7 8 -16 18 -14 18 -15 -4 -4 -19 9 -21 14 -11 26 9 12 9
13 -2 9 -9 -3 -19 6 -27 24 -7 16 -31 49 -52 74 -22 24 -36 48 -32 52 4 5 2 5
-5 1 -7 -4 -21 2 -33 14 -11 11 -22 20 -25 20 -16 0 -84 54 -78 63 4 6 1 7 -6
3 -18 -12 -113 89 -160 169 -37 63 -45 99 -17 76 7 -6 17 -6 26 -1 15 9 33 3
26 -9 -3 -4 10 -14 29 -21 19 -8 35 -18 35 -22 0 -5 4 -6 10 -3 6 4 7 -1 3
-11 -4 -11 -3 -15 4 -11 16 10 43 -3 43 -19 0 -8 -6 -11 -15 -8 -8 4 -12 11
-8 17 4 6 1 7 -6 2 -8 -4 -9 -11 -4 -16 13 -13 55 -20 48 -8 -4 5 -1 9 5 9 7
0 9 -7 6 -16 -4 -10 4 -21 24 -32 35 -20 46 -42 28 -54 -9 -5 -10 -8 -1 -8 7
0 17 8 23 18 11 16 11 16 6 0 -3 -10 2 -22 12 -27 11 -7 12 -11 4 -11 -7 0
-10 -5 -7 -10 4 -6 11 -8 16 -5 5 4 9 -1 9 -10 0 -9 4 -14 9 -11 5 4 8 -2 6
-11 -2 -10 -4 -21 -4 -25 -1 -4 -9 -5 -18 -1 -10 3 -15 3 -11 -1 3 -4 13 -9
22 -10 9 -1 16 -6 15 -11 -1 -9 30 -29 46 -30 5 0 12 -11 16 -25 4 -14 8 -18
9 -10 6 46 9 89 15 220 4 88 11 150 18 159 9 12 9 13 0 7 -10 -5 -13 10 -14
66 0 40 -2 80 -3 88 -2 8 -6 40 -10 70 -15 131 -63 233 -150 323 -34 34 -60
65 -58 70 1 5 -2 6 -7 2 -13 -8 -93 50 -83 60 4 5 2 5 -5 1 -7 -4 -30 5 -53
19 -22 14 -40 20 -40 14z m46 -74 c-1 -8 -5 -17 -8 -21 -5 -4 -4 16 1 34 3 9
9 -1 7 -13z m-349 -235 c-1 -20 -9 -25 -20 -13 -4 3 -2 12 4 20 15 18 18 17
16 -7z m528 -230 c-3 -5 -12 -10 -18 -10 -7 0 -6 4 3 10 19 12 23 12 15 0z
m123 -490 c7 -11 9 -20 4 -20 -4 0 -13 9 -20 20 -7 11 -9 20 -4 20 4 0 13 -9
20 -20z m105 -14 c3 -8 0 -20 -8 -26 -11 -9 -13 -7 -10 7 2 10 4 21 4 26 1 12
8 8 14 -7z m-373 -116 c0 -5 -2 -10 -4 -10 -3 0 -8 5 -11 10 -3 6 -1 10 4 10
6 0 11 -4 11 -10z m60 -80 c0 -5 -2 -10 -4 -10 -3 0 -8 5 -11 10 -3 6 -1 10 4
10 6 0 11 -4 11 -10z m295 -20 c3 -5 1 -10 -4 -10 -6 0 -11 5 -11 10 0 6 2 10
4 10 3 0 8 -4 11 -10z"/>
<path d="M5616 5795 c-3 -8 0 -17 6 -21 6 -4 8 -3 4 4 -3 6 2 12 11 14 16 3
17 4 1 10 -10 4 -18 1 -22 -7z"/>
<path d="M5290 5783 c0 -5 4 -14 9 -21 7 -11 9 -11 14 1 3 8 3 18 0 21 -9 8
-23 7 -23 -1z"/>
<path d="M1173 5658 c-2 -16 1 -18 10 -9 7 7 8 14 1 21 -6 6 -10 2 -11 -12z"/>
<path d="M1390 5640 c-6 -11 -15 -20 -21 -20 -6 0 -7 5 -3 12 5 7 3 8 -6 3
-10 -6 -9 -11 4 -21 19 -14 12 -39 -7 -27 -8 4 -7 1 1 -9 9 -11 9 -18 2 -21
-6 -3 -5 -4 2 -3 7 2 13 7 13 12 1 5 6 19 13 32 7 12 10 22 7 22 -3 0 -1 9 5
20 6 11 8 20 6 20 -3 0 -10 -9 -16 -20z"/>
<path d="M5370 5656 c0 -2 7 -7 16 -10 8 -3 12 -2 9 4 -6 10 -25 14 -25 6z"/>
<path d="M5719 5633 c-8 -9 -9 -14 -3 -10 7 4 14 0 18 -8 3 -8 10 -15 16 -15
6 0 4 7 -4 16 -9 8 -14 20 -11 25 10 15 -2 10 -16 -8z"/>
<path d="M5376 5618 c3 -5 10 -6 15 -3 13 9 11 12 -6 12 -8 0 -12 -4 -9 -9z"/>
<path d="M5736 5574 c-5 -14 -4 -15 9 -4 17 14 19 20 6 20 -5 0 -12 -7 -15
-16z"/>
<path d="M1616 5542 c-3 -5 1 -9 9 -9 8 0 12 4 9 9 -3 4 -7 8 -9 8 -2 0 -6 -4
-9 -8z"/>
<path d="M1596 5508 c3 -5 10 -6 15 -3 13 9 11 12 -6 12 -8 0 -12 -4 -9 -9z"/>
<path d="M5313 5465 c0 -8 4 -12 9 -9 5 3 6 10 3 15 -9 13 -12 11 -12 -6z"/>
<path d="M5330 5407 c-12 -21 -12 -21 6 -7 10 8 20 15 22 16 2 1 -1 4 -5 7 -5
3 -15 -4 -23 -16z"/>
<path d="M5653 5405 c0 -8 4 -15 9 -15 4 0 8 4 8 9 0 6 -4 12 -8 15 -5 3 -9
-1 -9 -9z"/>
<path d="M5805 5400 c3 -5 11 -10 16 -10 6 0 7 5 4 10 -3 6 -11 10 -16 10 -6
0 -7 -4 -4 -10z"/>
<path d="M5346 5391 c-4 -5 -2 -12 3 -15 5 -4 12 -2 15 3 4 5 2 12 -3 15 -5 4
-12 2 -15 -3z"/>
<path d="M6068 5383 c7 -3 16 -2 19 1 4 3 -2 6 -13 5 -11 0 -14 -3 -6 -6z"/>
<path d="M5383 5329 c9 -6 14 -16 11 -22 -4 -7 -4 -9 0 -5 5 4 19 -4 33 -18
13 -13 27 -24 30 -24 4 0 -11 18 -32 40 -21 22 -44 40 -50 40 -5 0 -2 -5 8
-11z"/>
<path d="M993 5315 c0 -8 4 -12 9 -9 5 3 6 10 3 15 -9 13 -12 11 -12 -6z"/>
<path d="M851 5291 c-8 -5 -9 -11 -3 -15 5 -3 12 1 16 9 6 17 6 18 -13 6z"/>
<path d="M1235 5240 c3 -5 8 -10 11 -10 2 0 4 5 4 10 0 6 -5 10 -11 10 -5 0
-7 -4 -4 -10z"/>
<path d="M6085 5240 c-16 -7 -17 -9 -3 -9 9 -1 20 4 23 9 7 11 7 11 -20 0z"/>
<path d="M5830 5220 c0 -5 5 -10 11 -10 5 0 7 5 4 10 -3 6 -8 10 -11 10 -2 0
-4 -4 -4 -10z"/>
<path d="M6094 5132 c3 -5 0 -13 -6 -15 -9 -4 -10 -6 -1 -6 17 -1 25 16 12 25
-7 4 -9 3 -5 -4z"/>
<path d="M980 5080 c0 -6 7 -10 15 -10 8 0 15 2 15 4 0 2 -7 6 -15 10 -8 3
-15 1 -15 -4z"/>
<path d="M5559 5088 c-8 -27 -5 -36 9 -30 10 4 12 7 4 10 -7 2 -10 8 -6 13 3
5 3 9 0 9 -3 0 -6 -1 -7 -2z"/>
<path d="M1435 5071 c-3 -5 -2 -12 3 -15 5 -3 9 1 9 9 0 17 -3 19 -12 6z"/>
<path d="M1416 5042 c-2 -4 -1 -14 3 -21 6 -10 10 -9 14 3 6 16 -8 32 -17 18z"/>
<path d="M733 5025 c0 -8 4 -15 9 -15 4 0 8 4 8 9 0 6 -4 12 -8 15 -5 3 -9 -1
-9 -9z"/>
<path d="M974 4998 c-4 -7 -4 -10 1 -6 4 4 15 2 24 -5 14 -11 14 -10 2 6 -16
20 -18 21 -27 5z"/>
<path d="M730 4990 c0 -5 5 -10 11 -10 5 0 7 5 4 10 -3 6 -8 10 -11 10 -2 0
-4 -4 -4 -10z"/>
<path d="M6073 4984 c0 -16 13 -19 21 -5 3 5 0 11 -7 14 -8 3 -14 -1 -14 -9z"/>
<path d="M5826 4959 c3 -5 10 -7 15 -4 5 4 9 1 9 -4 0 -6 5 -11 12 -11 9 0 9
3 0 12 -14 14 -44 20 -36 7z"/>
<path d="M5556 4938 c3 -5 10 -6 15 -3 13 9 11 12 -6 12 -8 0 -12 -4 -9 -9z"/>
<path d="M715 4921 c-3 -5 -2 -12 3 -15 5 -3 9 1 9 9 0 17 -3 19 -12 6z"/>
<path d="M5875 4880 c-3 -5 -1 -10 4 -10 6 0 11 5 11 10 0 6 -2 10 -4 10 -3 0
-8 -4 -11 -10z"/>
<path d="M5910 4861 c0 -5 7 -12 16 -15 14 -5 15 -4 4 9 -14 17 -20 19 -20 6z"/>
<path d="M1004 4852 c3 -5 0 -13 -6 -15 -9 -4 -10 -6 -1 -6 17 -1 25 16 12 25
-7 4 -9 3 -5 -4z"/>
<path d="M1244 4851 c7 -11 -22 -23 -35 -16 -5 4 -6 -1 -3 -9 5 -14 9 -13 30
0 20 14 25 34 8 34 -3 0 -3 -4 0 -9z"/>
<path d="M1001 4767 c2 -1 13 -9 24 -17 19 -14 19 -14 6 3 -7 9 -18 17 -24 17
-6 0 -8 -1 -6 -3z"/>
<path d="M1110 4751 c-8 -6 -19 -7 -25 -4 -5 3 -4 0 3 -8 10 -11 15 -10 29 4
19 19 16 22 -7 8z"/>
<path d="M6381 4662 c-1 -13 -5 -20 -11 -17 -6 4 -7 -1 -3 -11 4 -10 -1 -22
-12 -30 -11 -8 -16 -21 -12 -34 3 -11 1 -18 -4 -14 -5 3 -9 -2 -9 -11 0 -10 5
-13 13 -9 8 6 8 3 -1 -9 -8 -9 -10 -22 -6 -28 4 -8 3 -9 -4 -5 -7 4 -20 2 -29
-4 -15 -10 -16 -11 -1 -6 9 2 19 -1 22 -9 3 -8 0 -12 -7 -9 -7 2 -13 -6 -13
-21 -2 -22 0 -24 15 -13 12 9 11 7 -2 -9 -11 -12 -16 -26 -12 -32 4 -7 -1 -8
-12 -4 -15 5 -16 3 -5 -8 15 -16 16 -29 1 -29 -5 0 -8 4 -5 8 3 5 -1 9 -9 9
-11 0 -12 -4 -4 -14 6 -7 8 -13 5 -13 -4 0 -2 -9 4 -21 10 -19 10 -20 -8 -10
-16 9 -20 8 -18 -4 1 -8 6 -18 11 -22 4 -4 5 -2 0 6 -5 10 -4 12 4 7 6 -4 9
-12 5 -17 -3 -5 -10 -7 -15 -4 -7 5 -14 -47 -11 -77 1 -3 -5 -9 -14 -12 -10
-4 -13 -2 -8 6 4 7 3 8 -5 4 -6 -4 -10 -15 -9 -24 2 -12 -3 -16 -17 -14 -15 2
-17 1 -6 -7 8 -5 21 -7 30 -4 13 4 13 2 -1 -10 -10 -8 -14 -18 -10 -23 4 -4
-1 -2 -10 5 -21 16 -23 9 -6 -22 10 -21 10 -21 -7 -7 -17 14 -18 14 -5 -10 13
-24 12 -24 -5 -10 -17 14 -17 14 -7 -7 8 -14 9 -24 2 -28 -6 -4 -8 -10 -5 -15
3 -5 1 -11 -5 -15 -6 -4 -7 -12 -4 -18 4 -7 4 -9 -1 -5 -4 4 -14 0 -22 -10 -8
-9 -12 -12 -9 -5 4 6 1 15 -6 19 -7 4 -10 4 -6 -1 4 -4 3 -16 -2 -26 -7 -12
-6 -20 2 -25 7 -4 8 -3 4 4 -4 7 -2 12 3 12 15 0 13 -11 -4 -34 -12 -15 -12
-23 -3 -35 7 -9 2 -7 -11 4 l-24 20 12 -22 c8 -15 8 -23 1 -23 -5 0 -10 -5
-10 -11 0 -5 6 -7 13 -3 8 6 8 3 -1 -9 -8 -9 -11 -21 -8 -26 4 -5 3 -12 -2
-15 -5 -3 -9 7 -9 22 -4 72 -41 204 -84 300 -16 35 -26 69 -22 75 3 7 3 9 -2
5 -4 -4 -36 43 -70 105 -82 148 -88 159 -102 177 -6 8 -11 17 -10 20 1 3 -6
16 -16 30 -19 27 -19 26 -19 -40 0 -39 -1 -42 -10 -22 -6 12 -15 22 -21 22 -5
0 -5 -6 2 -13 8 -10 7 -17 -2 -27 -9 -10 -9 -11 1 -6 6 4 12 2 12 -4 0 -6 5
-8 12 -4 7 4 8 3 4 -5 -4 -6 -12 -9 -17 -6 -5 4 -6 -2 -2 -11 5 -14 3 -16 -11
-11 -10 4 -15 3 -11 -3 9 -14 32 -12 39 3 2 6 3 1 2 -12 -2 -14 -9 -27 -17
-29 -11 -3 -11 -1 1 7 9 7 10 11 3 11 -21 0 -25 -20 -6 -28 10 -4 19 -13 21
-21 3 -12 0 -12 -12 -2 -11 9 -16 9 -22 0 -4 -8 -3 -9 4 -5 7 4 12 2 12 -3 0
-6 8 -11 18 -11 14 0 15 -2 2 -10 -8 -5 -11 -10 -6 -10 5 0 2 -8 -5 -17 -12
-15 -12 -16 3 -10 10 3 20 1 24 -5 4 -7 3 -8 -4 -4 -13 8 -14 4 -15 -41 -1
-16 -6 -32 -12 -36 -6 -4 -1 -7 10 -5 11 2 23 8 27 13 5 6 8 5 8 -3 0 -7 -10
-17 -22 -22 -23 -9 -10 -15 22 -10 8 1 5 -6 -10 -18 l-24 -19 27 -18 c20 -13
25 -21 17 -30 -6 -7 -8 -23 -6 -36 3 -13 5 -28 5 -32 1 -5 7 -5 14 -1 7 5 6 0
-3 -11 -9 -11 -10 -16 -2 -11 8 5 12 -1 12 -20 0 -24 2 -25 17 -13 14 12 14
10 -1 -13 -19 -29 -11 -37 14 -15 8 6 6 2 -4 -10 -11 -13 -15 -23 -10 -23 5 0
2 -5 -6 -11 -12 -8 -11 -9 6 -4 24 6 37 -14 27 -42 -6 -16 -5 -17 13 -3 18 14
18 14 5 -2 -7 -10 -17 -16 -21 -13 -5 3 -11 1 -14 -4 -4 -5 5 -8 18 -7 18 2
23 -1 18 -12 -3 -9 -1 -13 5 -9 7 5 9 0 6 -13 -3 -11 -9 -20 -14 -20 -5 0 -6
6 -3 14 3 8 1 16 -4 20 -5 3 -8 -5 -7 -17 1 -14 9 -23 23 -25 12 -2 22 -7 22
-12 0 -5 -8 -6 -17 -3 -15 6 -16 5 -3 -9 8 -9 18 -14 21 -12 8 5 4 -29 -6 -45
-6 -11 -4 -13 10 -7 15 5 16 4 5 -9 -7 -8 -14 -27 -16 -41 -2 -21 1 -24 19
-19 19 5 19 4 5 -5 -10 -6 -15 -19 -13 -32 3 -12 -1 -28 -8 -37 -8 -10 -8 -12
-1 -8 7 4 15 0 18 -9 3 -8 2 -12 -3 -9 -5 3 -13 0 -17 -6 -4 -7 -3 -9 2 -6 6
3 16 2 24 -4 12 -7 12 -9 -3 -9 -10 0 -15 -5 -12 -10 4 -6 1 -18 -7 -27 -7 -9
-8 -14 -2 -10 7 4 15 0 18 -9 4 -12 2 -15 -9 -10 -8 3 -15 1 -15 -4 0 -6 7
-10 16 -10 15 0 15 -2 0 -25 -19 -29 -15 -32 9 -9 13 13 16 14 15 3 -1 -8 -2
-27 -1 -44 1 -29 2 -29 71 45 39 41 75 74 80 73 6 -2 9 1 7 6 -3 12 72 111 84
111 5 0 9 6 9 14 0 7 7 19 15 26 8 6 31 37 51 68 21 32 42 60 47 63 5 3 7 8 5
10 -1 2 13 31 32 64 19 33 35 62 35 65 1 3 7 19 14 35 61 144 80 249 76 414
-2 75 -6 147 -9 161 -4 14 -9 41 -12 60 -9 55 -52 178 -53 152z m-11 -76 c0
-3 -4 -8 -10 -11 -5 -3 -10 -1 -10 4 0 6 5 11 10 11 6 0 10 -2 10 -4z m-604
-371 c1 -8 -1 -17 -5 -19 -4 -3 -7 6 -7 19 0 25 8 25 12 0z m18 -106 c-3 -5
-10 -7 -15 -3 -5 3 -7 10 -3 15 3 5 10 7 15 3 5 -3 7 -10 3 -15z m19 -64 c-3
-9 -8 -14 -10 -11 -3 3 -2 9 2 15 9 16 15 13 8 -4z m119 -432 c-6 -2 -10 -9
-6 -14 3 -5 0 -9 -5 -9 -12 0 -14 13 -4 23 3 4 11 7 17 6 6 0 5 -3 -2 -6z m8
-113 c0 -5 -2 -10 -4 -10 -3 0 -8 5 -11 10 -3 6 -1 10 4 10 6 0 11 -4 11 -10z
m-3 -85 c0 -8 -4 -12 -9 -9 -5 3 -6 10 -3 15 9 13 12 11 12 -6z"/>
<path d="M680 4632 c0 -7 1 -13 2 -14 7 -11 -27 -48 -42 -48 -11 0 -20 -3 -21
-7 0 -5 -2 -16 -4 -26 -2 -9 1 -15 6 -11 5 3 7 9 4 14 -3 5 0 12 6 16 8 4 9 3
5 -4 -4 -7 -2 -12 4 -12 7 0 5 -7 -5 -16 -13 -13 -13 -19 -3 -32 8 -9 8 -13 2
-9 -7 4 -14 0 -18 -8 -3 -8 0 -15 7 -15 7 0 4 -5 -5 -11 -10 -5 -18 -15 -18
-20 0 -6 6 -7 13 -3 9 6 9 4 0 -6 -11 -12 -16 -11 -28 6 -14 18 -15 17 -4 -8
7 -15 19 -29 28 -31 14 -4 14 -5 0 -6 -20 -1 -34 -31 -16 -31 7 0 5 -5 -4 -10
-18 -10 -20 -73 -4 -88 4 -4 4 0 0 8 -8 13 -7 13 8 1 9 -7 17 -19 17 -25 0 -6
-5 -4 -10 4 -5 8 -10 11 -11 5 -3 -22 4 -51 14 -65 7 -8 1 -6 -12 5 l-24 20
18 -35 c23 -43 27 -74 9 -59 -8 7 -14 6 -20 -2 -4 -8 -3 -9 4 -5 8 5 11 -1 9
-16 -1 -16 3 -23 15 -23 9 0 20 -4 25 -8 4 -5 4 -8 -2 -7 -5 1 -17 2 -25 1
-13 -1 -13 -3 -1 -10 8 -5 16 -17 17 -27 1 -9 7 -21 12 -26 6 -6 7 -22 1 -40
-5 -20 -4 -38 3 -52 7 -11 12 -24 13 -28 0 -4 7 -13 15 -20 12 -11 12 -11 1 5
-7 9 -11 17 -7 17 4 0 -1 11 -10 26 -13 19 -14 28 -5 37 10 9 11 8 5 -7 -5
-13 -4 -17 4 -12 8 5 10 1 5 -10 -4 -11 -3 -15 5 -10 7 4 10 -1 7 -14 -2 -11
1 -22 6 -26 6 -4 6 -11 -1 -19 -10 -11 -8 -13 9 -10 12 2 21 0 21 -6 0 -5 -8
-9 -17 -9 -15 0 -16 -2 -3 -9 8 -6 18 -7 24 -4 5 3 6 1 2 -6 -4 -6 -2 -20 5
-29 12 -15 12 -15 -7 1 -17 14 -21 15 -21 2 0 -8 2 -13 5 -10 7 7 62 -35 62
-48 0 -7 -4 -6 -10 3 -5 8 -18 16 -29 16 -11 1 -18 -2 -15 -7 2 -4 11 -6 19
-2 13 4 19 -6 17 -28 -1 -4 6 -6 16 -5 11 1 16 -5 14 -16 -2 -13 2 -16 15 -11
16 6 16 5 4 -10 -11 -14 -11 -17 0 -18 8 -1 18 -1 23 0 5 1 3 -6 -5 -15 -13
-16 -12 -17 5 -10 19 7 19 6 2 -13 -11 -13 -14 -21 -6 -26 6 -3 9 -1 8 5 -2 7
5 14 15 15 15 3 16 1 6 -11 -6 -8 -9 -17 -5 -21 3 -3 6 -1 6 5 0 7 5 12 10 12
7 0 6 -8 -1 -22 -11 -21 -11 -22 4 -10 13 11 16 10 22 -7 3 -12 4 -25 0 -31
-3 -6 1 -7 9 -4 9 3 17 1 17 -5 4 -33 20 -62 31 -55 5 3 1 12 -9 20 -16 12
-16 13 -2 14 17 0 34 -26 30 -48 -1 -6 9 -16 23 -21 13 -6 30 -18 37 -29 8
-10 23 -24 34 -30 11 -6 14 -12 8 -12 -7 0 -13 -5 -13 -11 0 -6 7 -9 14 -6 9
4 13 1 10 -7 -7 -18 32 -51 42 -35 5 8 3 10 -6 4 -9 -6 -11 -4 -5 5 7 11 10
10 19 -1 6 -8 18 -20 27 -26 14 -12 15 -8 11 35 -8 72 -8 250 0 312 8 62 45
188 60 208 6 6 8 12 4 12 -3 0 1 17 8 38 24 62 54 181 71 282 24 142 24 140
30 215 3 39 8 93 10 120 4 46 3 48 -10 31 -8 -11 -15 -23 -15 -28 0 -4 -7 -8
-16 -8 -9 0 -12 -5 -8 -12 5 -7 2 -9 -7 -6 -8 3 -26 0 -40 -7 -24 -14 -24 -14
-1 -12 12 1 22 5 22 10 0 4 5 5 12 1 8 -5 2 -12 -17 -20 -32 -13 -35 -21 -13
-36 8 -5 2 -6 -17 -2 -28 7 -29 7 -12 -10 18 -19 21 -27 10 -25 -19 3 -33 -2
-33 -12 0 -5 4 -8 8 -5 5 3 9 -1 9 -9 0 -11 -3 -12 -14 -3 -11 9 -13 5 -8 -23
4 -23 2 -29 -4 -19 -5 8 -8 17 -5 21 2 4 -4 13 -14 20 -15 13 -16 12 -4 -3 9
-11 10 -18 2 -23 -8 -5 -7 -11 2 -23 11 -13 11 -14 -1 -7 -11 6 -13 4 -8 -8 3
-8 -1 -21 -9 -28 -12 -10 -12 -14 -2 -20 9 -6 6 -9 -11 -9 -21 0 -22 -2 -10
-17 12 -14 12 -16 0 -8 -11 6 -13 4 -8 -8 4 -11 2 -14 -8 -11 -8 3 -11 12 -9
19 3 7 2 15 -3 18 -15 9 -10 -37 5 -49 12 -8 11 -12 -2 -23 -9 -7 -13 -18 -9
-24 3 -6 1 -7 -6 -3 -9 6 -9 11 -1 21 8 9 8 15 0 20 -6 4 -10 3 -9 -2 1 -4 1
-10 -1 -13 -1 -3 -3 -15 -6 -28 -3 -17 -1 -21 8 -16 9 6 9 3 0 -9 -8 -9 -10
-22 -6 -29 6 -9 3 -9 -10 1 -16 13 -17 12 -12 -15 5 -28 5 -28 -11 -9 -14 18
-15 18 -9 2 3 -10 6 -23 6 -28 0 -6 5 -7 12 -3 7 4 8 3 4 -5 -4 -6 -11 -9 -16
-6 -4 3 -10 -2 -13 -10 -4 -10 -1 -12 11 -8 13 4 12 2 -3 -10 -11 -8 -23 -13
-27 -11 -4 3 -5 -2 -2 -11 5 -13 9 -13 23 -3 13 10 13 9 -1 -8 -22 -25 -23
-38 -3 -30 22 8 18 -2 -6 -15 -13 -7 -19 -7 -15 -1 3 6 1 14 -6 18 -7 4 -10 4
-6 -1 4 -4 2 -15 -5 -23 -9 -13 -9 -14 1 -8 7 4 12 2 12 -4 0 -6 4 -9 9 -6 8
5 8 -15 1 -34 -1 -3 -2 -8 -1 -12 0 -5 -4 -8 -9 -8 -6 0 -10 5 -10 10 0 17 5
25 13 22 5 -1 6 2 2 7 -3 6 -11 8 -18 5 -14 -5 -41 71 -31 88 4 6 3 8 -4 4 -6
-3 -14 4 -18 16 -3 13 -27 65 -51 116 -66 138 -144 398 -167 555 -3 20 -16 35
-16 19z m-80 -312 c0 -5 -4 -10 -10 -10 -5 0 -10 5 -10 10 0 6 5 10 10 10 6 0
10 -4 10 -10z m10 -26 c0 -8 -19 -13 -24 -6 -3 5 1 9 9 9 8 0 15 -2 15 -3z m0
-208 c0 -3 -4 -8 -10 -11 -5 -3 -10 -1 -10 4 0 6 5 11 10 11 6 0 10 -2 10 -4z
m467 -791 c0 -8 -4 -12 -9 -9 -5 3 -6 10 -3 15 9 13 12 11 12 -6z"/>
<path d="M642 4594 c-7 -8 -8 -14 -3 -14 10 0 25 19 20 25 -2 1 -10 -3 -17
-11z"/>
<path d="M6315 4580 c-3 -5 -1 -10 4 -10 6 0 11 5 11 10 0 6 -2 10 -4 10 -3 0
-8 -4 -11 -10z"/>
<path d="M5807 4535 c3 -8 9 -12 14 -9 12 7 11 11 -5 17 -10 4 -13 1 -9 -8z"/>
<path d="M6313 4525 c0 -8 4 -12 9 -9 5 3 6 10 3 15 -9 13 -12 11 -12 -6z"/>
<path d="M602 4505 c4 -4 3 -14 -3 -22 -7 -8 -8 -13 -1 -13 15 0 23 28 9 36
-7 4 -9 4 -5 -1z"/>
<path d="M1253 4485 c0 -8 4 -12 9 -9 5 3 6 10 3 15 -9 13 -12 11 -12 -6z"/>
<path d="M5865 4460 c-4 -6 -1 -9 7 -8 7 2 12 -3 10 -10 -1 -8 2 -11 8 -7 8 5
7 11 -1 21 -14 17 -16 17 -24 4z"/>
<path d="M796 4413 c-6 -14 -5 -15 5 -6 7 7 10 15 7 18 -3 3 -9 -2 -12 -12z"/>
<path d="M6275 4420 c3 -5 8 -10 11 -10 2 0 4 5 4 10 0 6 -5 10 -11 10 -5 0
-7 -4 -4 -10z"/>
<path d="M5917 4403 c-4 -3 -7 -11 -7 -17 0 -6 5 -5 12 2 6 6 9 14 7 17 -3 3
-9 2 -12 -2z"/>
<path d="M835 4320 c-3 -5 -1 -10 4 -10 6 0 11 5 11 10 0 6 -2 10 -4 10 -3 0
-8 -4 -11 -10z"/>
<path d="M5950 4301 c0 -6 4 -13 10 -16 6 -3 7 1 4 9 -7 18 -14 21 -14 7z"/>
<path d="M1124 4252 c3 -5 0 -13 -6 -15 -9 -4 -10 -6 -1 -6 17 -1 25 16 12 25
-7 4 -9 3 -5 -4z"/>
<path d="M6221 4232 c-7 -13 -6 -19 2 -19 7 0 13 9 13 19 0 10 -1 18 -3 18 -1
0 -7 -8 -12 -18z"/>
<path d="M556 4222 c-3 -5 1 -9 9 -9 8 0 12 4 9 9 -3 4 -7 8 -9 8 -2 0 -6 -4
-9 -8z"/>
<path d="M859 4183 c-13 -16 -12 -17 4 -4 9 7 17 15 17 17 0 8 -8 3 -21 -13z"/>
<path d="M6010 4166 c0 -3 9 -10 20 -16 11 -6 20 -8 20 -6 0 3 -9 10 -20 16
-11 6 -20 8 -20 6z"/>
<path d="M575 4140 c-3 -5 1 -10 10 -10 9 0 13 5 10 10 -3 6 -8 10 -10 10 -2
0 -7 -4 -10 -10z"/>
<path d="M900 4113 c5 -2 10 -9 10 -14 0 -6 -4 -8 -8 -5 -5 3 -9 -1 -9 -9 0
-8 4 -12 9 -9 4 3 8 0 8 -5 0 -6 5 -11 11 -11 6 0 7 5 2 13 -4 6 -8 18 -8 26
0 8 -6 15 -13 17 -7 1 -8 0 -2 -3z"/>
<path d="M5758 4078 c5 -5 16 -8 23 -6 8 3 3 7 -10 11 -17 4 -21 3 -13 -5z"/>
<path d="M894 4043 c4 -4 16 -8 28 -10 28 -4 18 6 -12 12 -12 2 -20 1 -16 -2z"/>
<path d="M6148 4043 c7 -3 16 -2 19 1 4 3 -2 6 -13 5 -11 0 -14 -3 -6 -6z"/>
<path d="M6140 4014 c0 -9 -5 -12 -12 -8 -7 4 -8 3 -4 -5 6 -9 11 -9 22 0 7 6
11 15 8 20 -8 14 -14 11 -14 -7z"/>
<path d="M597 3995 c-4 -8 -3 -14 1 -14 19 3 26 -2 13 -10 -8 -5 -9 -11 -3
-15 16 -9 21 18 7 37 -11 15 -13 16 -18 2z"/>
<path d="M5762 3846 c-11 -24 -15 -26 -29 -15 -15 13 -15 12 -5 -7 12 -22 7
-34 -12 -34 -6 0 -4 5 4 10 12 8 10 9 -7 7 -12 -2 -26 -7 -30 -12 -5 -4 -3 -5
4 -1 7 4 17 -2 23 -13 11 -22 4 -30 -23 -25 -11 1 -16 -1 -12 -4 4 -4 11 -8
16 -8 22 -3 22 -6 0 -13 -23 -6 -23 -7 -7 -24 14 -14 15 -17 3 -17 -9 0 -18 6
-21 13 -2 6 -4 2 -2 -10 1 -12 6 -26 11 -30 4 -5 5 -2 0 6 -6 10 -4 12 4 7 13
-9 6 -21 -12 -21 -6 0 -13 -18 -14 -40 -2 -33 0 -36 7 -17 5 12 12 22 14 22 3
0 2 -10 -3 -22 -4 -13 -7 -29 -5 -36 1 -7 0 -8 -3 -2 -2 5 -8 10 -12 10 -6 0
-6 -19 -2 -63 1 -5 7 -5 14 -1 8 5 8 2 -2 -9 -11 -14 -11 -20 0 -34 12 -14 12
-16 0 -8 -11 6 -13 4 -7 -10 5 -15 4 -16 -8 -6 -10 8 -16 9 -21 1 -3 -5 4 -14
17 -19 23 -10 23 -10 1 -10 -12 -1 -25 -5 -28 -11 -4 -6 1 -7 11 -3 12 4 15 3
10 -5 -4 -7 -2 -12 4 -12 7 0 10 -6 7 -14 -3 -7 0 -20 6 -27 10 -11 9 -11 -5
0 -10 7 -15 17 -12 22 3 5 0 9 -5 9 -14 0 -14 -6 -1 -30 7 -14 6 -23 -5 -33
-13 -13 -13 -16 1 -21 8 -3 12 -2 9 3 -3 5 -1 12 3 15 10 6 10 -34 0 -49 -3
-6 -5 -25 -4 -44 2 -30 1 -32 -12 -15 -13 18 -14 18 -7 -3 5 -19 3 -22 -12
-17 -14 5 -15 4 -3 -4 8 -6 17 -9 21 -6 4 2 11 -1 15 -7 4 -8 3 -9 -4 -5 -7 4
-12 2 -12 -4 0 -6 -4 -9 -9 -5 -5 3 -13 1 -16 -5 -4 -6 -3 -10 2 -9 22 4 28
-3 29 -31 1 -16 -2 -30 -7 -30 -4 0 -6 9 -4 20 2 11 0 22 -5 25 -12 7 -25 -16
-13 -24 11 -7 11 -22 -1 -39 -5 -8 -4 -18 3 -25 9 -9 11 -7 6 8 -5 16 -5 17 3
5 7 -9 7 -18 1 -26 -7 -8 -6 -13 3 -16 8 -3 6 -7 -6 -11 -12 -5 -15 -3 -10 6
4 7 3 9 -2 4 -5 -5 -9 -12 -9 -15 0 -4 -4 -13 -9 -21 -7 -10 -6 -12 4 -6 10 6
12 4 7 -9 -4 -10 -7 -20 -7 -22 0 -3 -6 -2 -12 2 -10 6 -10 5 -1 -7 7 -9 8
-20 3 -28 -9 -16 -2 -43 9 -36 4 2 8 -2 8 -9 0 -7 -6 -13 -13 -13 -7 0 -12 5
-11 10 1 5 -5 12 -13 14 -12 4 -12 3 -2 -5 8 -5 13 -12 13 -16 -1 -3 -1 -7 0
-8 6 -22 5 -39 -3 -45 -6 -3 -8 -2 -5 4 3 5 0 10 -8 10 -10 0 -11 -5 -5 -17
10 -19 8 -46 -5 -57 -4 -4 -5 -3 -1 4 3 6 2 15 -4 18 -6 4 -10 3 -9 -2 4 -22
-2 -44 -10 -38 -5 3 -13 0 -17 -6 -4 -7 -3 -9 3 -6 6 4 17 -1 24 -10 8 -9 10
-14 4 -11 -5 3 -19 -6 -30 -21 -11 -16 -13 -21 -4 -14 9 7 20 9 24 5 5 -4 5
-1 1 6 -4 6 -2 12 4 12 10 0 7 -40 -5 -60 -3 -5 0 -10 9 -10 8 0 16 4 18 8 7
16 78 53 89 46 8 -4 9 -3 5 5 -4 6 0 14 11 18 10 4 23 11 28 15 40 33 144 91
160 90 12 -1 15 2 8 6 -8 5 5 21 38 45 28 20 55 34 61 31 7 -4 8 -2 4 4 -4 6
6 19 21 29 32 21 60 43 116 96 23 20 45 37 50 37 4 0 5 5 2 10 -6 9 8 14 28
11 5 -1 6 3 3 8 -4 5 17 36 45 68 112 127 187 286 214 458 11 66 13 215 4 221
-5 3 -9 -1 -9 -8 0 -7 -13 -33 -29 -57 -17 -25 -28 -48 -25 -52 5 -8 -16 -6
-31 3 -6 4 -10 -7 -9 -28 1 -19 -2 -31 -7 -28 -5 3 -7 9 -4 14 3 5 1 11 -4 14
-4 3 -8 -2 -8 -12 0 -49 -4 -63 -15 -56 -8 5 -9 2 -5 -9 3 -9 2 -19 -4 -22 -5
-4 -7 -11 -3 -16 3 -5 0 -8 -7 -7 -7 2 -13 -1 -14 -7 0 -15 -34 -60 -40 -54
-2 3 4 15 15 26 16 18 17 22 4 27 -9 3 -12 1 -9 -4 3 -6 1 -10 -5 -10 -6 0 -9
-4 -6 -9 3 -4 -3 -16 -14 -26 -14 -12 -17 -22 -10 -34 6 -13 4 -17 -12 -18
-28 -2 -54 -33 -50 -58 2 -11 0 -16 -5 -10 -10 12 -55 16 -47 4 3 -5 9 -7 14
-4 5 3 11 1 15 -5 3 -5 1 -10 -5 -10 -6 0 -8 -5 -3 -12 4 -7 -5 -5 -20 5 -15
9 -27 13 -27 8 0 -5 6 -11 13 -14 17 -6 6 -16 -24 -20 -22 -4 -26 -14 -12 -27
4 -3 3 0 0 6 -3 6 0 11 8 11 11 0 12 -3 3 -14 -6 -8 -18 -11 -26 -8 -9 3 -12
0 -9 -9 8 -20 -3 -27 -25 -15 -17 9 -18 8 -9 -9 9 -17 7 -19 -15 -16 -19 2
-24 -1 -20 -12 3 -8 -1 -14 -10 -14 -8 0 -12 -5 -9 -10 4 -6 12 -7 18 -3 7 4
6 -1 -2 -10 -11 -13 -17 -15 -28 -6 -11 9 -12 9 -8 -3 8 -20 -21 -49 -40 -41
-11 4 -13 1 -9 -11 3 -9 11 -13 18 -9 7 4 7 1 -1 -9 -7 -8 -11 -17 -8 -20 3
-2 -1 -5 -9 -5 -11 0 -13 11 -8 46 8 71 8 299 -1 366 -4 33 -14 98 -22 145 -8
47 -17 103 -21 125 -3 22 -9 58 -13 79 l-6 39 -13 -27z m-72 -212 c0 -2 -7 -4
-15 -4 -8 0 -15 4 -15 10 0 5 7 7 15 4 8 -4 15 -8 15 -10z m524 -172 c3 -5 -1
-9 -9 -9 -8 0 -12 4 -9 9 3 4 7 8 9 8 2 0 6 -4 9 -8z m-56 -72 c-7 -10 -14
-18 -15 -16 -6 6 9 36 18 36 5 0 4 -9 -3 -20z m-561 -475 c0 -8 -4 -12 -9 -9
-5 3 -6 10 -3 15 9 13 12 11 12 -6z m-52 -215 c-3 -5 -11 -10 -16 -10 -6 0 -7
5 -4 10 3 6 11 10 16 10 6 0 7 -4 4 -10z"/>
<path d="M5833 3835 c0 -8 4 -12 9 -9 4 3 8 9 8 15 0 5 -4 9 -8 9 -5 0 -9 -7
-9 -15z"/>
<path d="M1301 3822 c-1 -7 -5 -11 -10 -7 -5 3 -13 0 -17 -6 -4 -8 -3 -9 4 -5
7 4 12 1 12 -8 0 -8 -5 -18 -11 -22 -8 -4 -7 -9 2 -15 11 -7 11 -9 1 -9 -7 0
-10 -5 -6 -12 4 -6 3 -8 -3 -5 -6 4 -14 0 -17 -9 -9 -22 -8 -26 6 -18 7 5 8 3
3 -5 -4 -7 -17 -10 -29 -7 -19 5 -19 3 4 -16 15 -13 18 -19 8 -15 -10 3 -20 1
-24 -5 -4 -7 -3 -8 4 -4 7 4 12 2 12 -4 0 -6 5 -8 12 -4 7 5 8 3 4 -5 -5 -7
-14 -10 -21 -7 -16 6 -8 -35 9 -46 7 -5 7 -8 -2 -8 -7 0 -10 -5 -6 -12 4 -7 3
-8 -5 -4 -6 4 -9 11 -6 16 3 4 -3 14 -13 21 -15 12 -16 12 -6 -1 5 -8 10 -22
9 -30 0 -8 6 -20 14 -26 11 -9 12 -12 1 -19 -9 -5 -11 -4 -6 3 4 7 2 12 -3 12
-6 0 -11 -5 -11 -11 0 -7 -8 -18 -17 -25 -16 -12 -16 -13 -1 -8 10 3 20 -2 27
-15 16 -28 14 -38 -3 -15 -8 10 -18 16 -22 11 -4 -4 -2 -7 5 -7 7 0 9 -5 4
-12 -13 -21 -10 -52 7 -65 8 -7 11 -13 6 -13 -5 0 -3 -6 3 -14 9 -10 8 -16 -4
-26 -8 -7 -12 -17 -8 -23 3 -6 1 -7 -5 -3 -7 4 -12 2 -12 -4 0 -6 -5 -8 -12
-4 -10 6 -10 4 -2 -7 6 -8 10 -22 9 -32 -2 -9 1 -15 6 -11 5 3 7 10 4 15 -4 5
-2 9 3 9 6 0 13 -7 16 -16 3 -8 2 -13 -3 -10 -5 3 -8 -19 -6 -49 2 -33 0 -53
-6 -50 -5 4 -9 1 -9 -4 0 -6 5 -11 10 -11 6 0 10 -9 10 -21 0 -13 4 -18 12
-13 7 4 8 3 4 -5 -4 -6 -12 -9 -17 -6 -5 3 -6 -1 -3 -9 3 -9 9 -14 13 -12 3 2
7 -7 7 -20 2 -22 0 -21 -20 9 -12 17 -36 47 -54 66 -17 19 -28 39 -25 44 3 6
1 7 -4 4 -13 -8 -46 27 -36 38 5 4 3 5 -4 2 -6 -4 -17 -1 -25 6 -7 7 -23 20
-35 28 -12 9 -45 36 -73 62 -36 33 -48 51 -44 64 5 15 4 15 -5 3 -12 -17 -14
-15 -81 81 -44 63 -170 285 -170 300 0 5 -4 9 -8 9 -4 0 -7 -20 -7 -44 1 -25
-2 -43 -6 -40 -13 8 -20 -28 -8 -42 10 -12 8 -13 -6 -8 -12 5 -16 4 -12 -3 4
-6 1 -14 -5 -16 -10 -4 -10 -6 0 -6 6 -1 12 -10 12 -21 0 -11 5 -20 11 -20 5
0 7 -5 4 -10 -5 -8 -11 -8 -19 -1 -9 8 -13 7 -13 -4 0 -8 4 -12 9 -9 4 3 8 0
8 -7 0 -8 4 -8 13 -1 9 8 12 0 11 -38 -1 -33 3 -51 12 -54 11 -4 11 -11 4 -32
-10 -25 -9 -26 7 -13 12 10 15 10 9 1 -4 -7 -9 -27 -11 -45 -3 -25 -2 -28 6
-14 6 9 8 21 4 26 -3 5 0 13 7 17 7 4 10 4 6 -1 -4 -4 -3 -17 3 -28 8 -14 8
-18 0 -13 -6 4 -11 2 -11 -3 0 -10 14 -15 33 -12 5 1 6 -3 2 -9 -3 -6 -11 -7
-17 -4 -7 5 -8 2 -3 -6 4 -7 2 -16 -6 -21 -12 -7 -12 -10 0 -21 8 -7 11 -8 8
-2 -8 13 20 40 30 30 3 -3 0 -6 -8 -6 -10 -1 -8 -5 6 -17 17 -13 17 -15 2 -10
-14 6 -16 3 -8 -12 6 -10 8 -21 5 -24 -3 -3 2 -3 13 -1 21 6 54 -42 45 -65 -3
-9 0 -12 10 -9 10 4 13 -1 12 -22 -2 -23 2 -27 22 -24 16 1 22 -2 17 -9 -13
-21 -10 -45 4 -40 10 4 11 9 2 19 -6 8 -7 14 -2 14 5 0 15 -11 21 -25 6 -14
16 -25 22 -25 5 0 10 -5 10 -12 0 -6 -8 -4 -19 6 -14 13 -21 14 -27 5 -4 -7
-3 -10 4 -5 6 3 20 -6 33 -21 12 -16 19 -20 16 -11 -3 10 -1 20 5 24 7 4 8 3
4 -4 -4 -7 -2 -12 4 -12 6 0 8 -4 5 -10 -3 -5 -1 -10 5 -10 6 0 8 -5 4 -12 -6
-10 -5 -10 7 -1 22 18 46 -21 27 -45 -10 -12 -7 -12 15 3 21 13 27 15 25 4 -2
-8 2 -13 8 -12 6 1 11 -5 11 -13 0 -11 -4 -11 -19 3 -22 20 -24 11 -2 -12 13
-12 19 -13 30 -4 12 10 13 9 8 -6 -5 -13 -4 -16 4 -11 7 4 12 2 12 -6 0 -9 3
-9 10 2 5 8 10 10 10 5 0 -6 -5 -16 -12 -23 -7 -7 -8 -12 -2 -12 6 0 15 5 22
12 9 9 12 8 12 -4 0 -9 -6 -19 -12 -22 -7 -3 -1 -3 15 -1 18 2 25 0 21 -7 -5
-7 -2 -9 9 -5 9 3 18 0 21 -9 4 -10 2 -13 -7 -8 -6 4 -4 -1 5 -11 14 -15 20
-16 32 -6 12 10 14 9 11 -6 -1 -10 -9 -17 -16 -15 -8 2 -10 0 -6 -4 11 -11 38
-14 31 -3 -3 5 0 9 5 9 10 0 15 -14 12 -33 -1 -5 3 -6 8 -3 5 4 12 -2 14 -11
4 -16 5 -16 6 -1 0 9 -3 20 -9 23 -5 3 -10 12 -10 18 0 7 5 4 11 -6 6 -9 14
-15 19 -12 5 3 7 -4 5 -16 -4 -18 -2 -19 12 -7 12 9 15 9 9 1 -4 -8 -2 -13 6
-13 9 0 9 -3 -2 -10 -9 -6 -10 -10 -3 -10 6 0 15 5 18 10 4 7 13 7 26 0 11 -6
17 -16 13 -21 -3 -6 2 -9 12 -7 12 2 18 -2 16 -11 -2 -9 4 -12 17 -8 14 3 18
1 14 -9 -3 -9 2 -12 15 -9 16 3 20 -1 17 -16 -3 -16 -1 -17 14 -10 12 7 22 6
29 -1 6 -6 28 -19 50 -28 l40 -18 -8 29 c-5 16 -6 29 -2 29 4 0 1 4 -7 9 -8 5
-14 22 -15 39 0 17 -4 28 -7 26 -4 -2 -10 11 -14 29 -4 17 -9 34 -9 37 -1 3
-5 14 -9 25 -3 11 -9 31 -11 45 -22 103 -27 129 -31 157 -2 18 -7 48 -10 65
-8 47 -22 202 -30 342 -2 34 -6 75 -9 91 -3 17 -7 53 -11 80 -4 42 -20 124
-25 132 -1 2 -4 11 -7 21 -8 32 -51 118 -52 104z m-671 -222 c0 -11 -2 -20 -4
-20 -2 0 -6 9 -9 20 -3 11 -1 20 4 20 5 0 9 -9 9 -20z m592 -168 c-7 -2 -9 -9
-5 -15 3 -7 2 -8 -2 -4 -16 14 -14 36 3 29 10 -4 12 -7 4 -10z m-52 -632 c0
-5 -5 -10 -11 -10 -5 0 -7 5 -4 10 3 6 8 10 11 10 2 0 4 -4 4 -10z"/>
<path d="M1254 3765 c-3 -14 -9 -23 -13 -21 -4 3 -8 -5 -8 -16 -2 -20 -1 -20
15 3 9 13 17 26 17 29 0 3 4 11 8 18 5 7 4 12 -2 12 -6 0 -13 -11 -17 -25z"/>
<path d="M6367 3742 c-20 -22 -22 -35 -4 -29 6 2 12 8 12 13 0 5 4 15 8 22 12
18 3 15 -16 -6z"/>
<path d="M600 3709 c-11 -6 -11 -9 -2 -9 10 0 10 -5 2 -20 -15 -28 -6 -25 14
4 17 27 9 40 -14 25z"/>
<path d="M6340 3689 c0 -5 5 -7 10 -4 6 3 10 8 10 11 0 2 -4 4 -10 4 -5 0 -10
-5 -10 -11z"/>
<path d="M730 3660 c0 -5 5 -10 11 -10 5 0 7 5 4 10 -3 6 -8 10 -11 10 -2 0
-4 -4 -4 -10z"/>
<path d="M6275 3620 c3 -5 8 -10 11 -10 2 0 4 5 4 10 0 6 -5 10 -11 10 -5 0
-7 -4 -4 -10z"/>
<path d="M6264 3571 c8 -12 -19 -33 -29 -23 -5 4 -5 1 -1 -6 6 -11 12 -10 27
4 16 14 18 34 3 34 -3 0 -3 -4 0 -9z"/>
<path d="M5633 3495 c0 -8 4 -12 9 -9 5 3 6 10 3 15 -9 13 -12 11 -12 -6z"/>
<path d="M970 3382 c0 -6 5 -12 10 -12 6 0 10 -6 10 -14 0 -8 7 -17 16 -20 25
-9 23 -4 -8 29 -15 16 -28 24 -28 17z"/>
<path d="M1185 3380 c-3 -6 1 -7 9 -4 18 7 21 14 7 14 -6 0 -13 -4 -16 -10z"/>
<path d="M1200 3359 c0 -5 -4 -7 -10 -4 -6 3 -7 -1 -4 -10 5 -12 10 -13 20 -4
8 6 11 15 8 20 -7 12 -14 11 -14 -2z"/>
<path d="M5890 3300 c0 -5 5 -10 11 -10 5 0 7 5 4 10 -3 6 -8 10 -11 10 -2 0
-4 -4 -4 -10z"/>
<path d="M5555 3254 c-18 -23 -32 -33 -42 -29 -13 4 -13 3 -4 -9 9 -11 7 -18
-13 -34 -14 -10 -22 -23 -18 -27 4 -5 1 -5 -7 0 -12 7 -11 10 3 20 14 11 15
14 1 25 -13 11 -14 10 -9 -5 5 -12 4 -16 -3 -12 -7 5 -10 -2 -8 -18 1 -17 -3
-25 -14 -25 -14 0 -14 -2 -1 -10 10 -6 11 -10 3 -10 -7 0 -12 -3 -12 -7 3 -20
-3 -23 -23 -12 -19 9 -21 9 -10 -2 18 -19 15 -29 -8 -29 -11 0 -19 -6 -17 -12
1 -7 -6 -12 -17 -11 -13 1 -15 -2 -7 -10 7 -7 16 -5 31 8 11 10 23 15 27 12 3
-4 1 -7 -6 -7 -7 0 -9 -5 -6 -10 4 -6 1 -9 -6 -8 -7 2 -14 -1 -14 -7 -2 -21
-17 -56 -22 -52 -2 3 0 14 6 24 7 15 7 20 -4 20 -7 0 -11 -6 -8 -14 4 -9 0
-11 -13 -7 -14 4 -15 3 -6 -4 9 -6 11 -18 6 -36 -4 -18 -9 -23 -14 -16 -5 8
-9 5 -13 -9 -4 -15 -10 -19 -24 -15 -14 5 -15 4 -3 -4 8 -6 17 -9 21 -6 4 2
11 -1 15 -7 4 -7 3 -9 -3 -6 -6 4 -17 -1 -24 -10 -8 -10 -9 -14 -2 -10 6 4 14
3 17 -2 4 -5 -5 -8 -19 -6 -14 1 -28 -2 -32 -8 -3 -6 -2 -7 4 -4 6 4 19 0 29
-8 19 -15 19 -15 0 -8 -13 4 -17 3 -12 -5 5 -8 1 -10 -11 -5 -15 6 -16 4 -6
-8 12 -15 12 -28 -1 -67 -5 -15 -13 -21 -22 -18 -8 3 -12 2 -9 -3 3 -5 1 -12
-4 -16 -14 -8 -2 -36 13 -29 6 3 2 -1 -8 -10 -10 -8 -23 -13 -29 -9 -6 3 -7 1
-3 -6 4 -6 12 -8 18 -5 7 4 8 2 4 -4 -4 -7 -1 -12 6 -12 7 -1 1 -8 -14 -16
-33 -17 -36 -24 -8 -19 11 2 18 0 15 -6 -4 -5 -12 -9 -20 -9 -8 0 -17 -5 -21
-12 -4 -6 -3 -8 3 -5 6 4 13 1 16 -7 8 -20 -4 -28 -21 -13 -13 10 -14 9 -8 -2
5 -8 3 -17 -5 -23 -10 -6 -6 -7 11 -3 17 4 21 3 12 -3 -8 -5 -14 -13 -14 -18
-1 -21 -11 -35 -22 -31 -7 3 -13 -7 -14 -25 -1 -16 -9 -40 -17 -52 -8 -12 -12
-27 -8 -31 5 -5 1 -4 -8 3 -19 15 -33 4 -18 -14 8 -10 7 -18 -5 -30 -9 -8 -14
-19 -12 -23 3 -4 -1 -8 -9 -8 -10 0 -12 4 -5 12 5 6 5 17 1 24 -6 9 -11 10
-15 2 -4 -6 -2 -11 4 -11 6 0 8 -5 5 -10 -4 -6 -11 -7 -17 -4 -6 4 -6 -2 1
-15 8 -14 8 -21 1 -21 -5 0 -10 5 -10 12 0 6 -3 8 -6 5 -4 -4 -1 -13 6 -22 12
-15 11 -16 -12 -19 -6 0 -13 -7 -16 -15 -3 -9 0 -11 8 -6 9 5 11 4 6 -4 -6 -9
-11 -9 -21 -1 -10 8 -15 8 -21 -1 -5 -8 -3 -9 6 -4 10 6 12 4 7 -9 -4 -10 -7
-20 -7 -22 0 -3 -4 -2 -10 1 -5 3 -10 2 -10 -4 0 -5 6 -12 13 -14 10 -4 10 -6
0 -6 -7 -1 -13 -6 -13 -11 0 -6 -12 -22 -27 -36 l-28 -25 30 20 c17 12 47 22
67 23 21 1 35 4 33 8 -5 9 38 6 52 -3 9 -6 11 -3 7 7 -5 13 0 15 25 12 17 -2
28 1 25 5 -3 5 1 9 8 10 27 1 137 31 187 51 22 8 23 8 10 -9 -13 -17 -13 -17
7 -1 11 10 31 19 45 20 13 2 27 7 30 12 4 5 23 9 42 10 19 0 33 5 29 10 -3 5
5 7 16 4 12 -4 20 -3 17 2 -8 13 22 19 35 7 10 -9 11 -9 6 1 -4 6 -2 12 3 12
18 0 20 0 48 15 14 8 30 12 35 9 4 -3 8 -1 8 4 0 9 55 26 73 23 4 0 7 4 7 10
0 5 4 8 9 5 5 -3 14 1 21 9 7 8 16 13 20 10 4 -3 13 2 20 10 7 8 18 15 24 15
6 0 28 11 49 25 20 14 37 24 37 21 0 -7 46 34 96 84 24 24 59 74 78 110 33 63
80 198 91 262 3 17 8 34 10 38 4 6 10 30 21 85 l6 30 -21 -33 c-12 -19 -33
-46 -46 -60 -14 -15 -25 -30 -25 -35 0 -4 -4 -6 -9 -2 -5 3 -12 1 -16 -5 -4
-6 -11 -7 -17 -4 -5 4 -4 -4 2 -17 7 -13 9 -21 5 -17 -5 4 -14 3 -22 -3 -10
-9 -17 -8 -30 2 -15 11 -14 10 1 -9 11 -12 14 -22 8 -22 -7 0 -11 -3 -10 -7 2
-5 -6 -19 -16 -33 -11 -15 -16 -18 -12 -7 5 15 2 16 -14 7 -10 -5 -22 -16 -26
-23 -5 -7 0 -6 11 3 18 15 18 14 1 -16 -23 -38 -52 -58 -62 -42 -4 7 -3 8 4 4
8 -5 10 -2 6 8 -5 12 -9 13 -19 3 -7 -7 -10 -14 -6 -17 3 -3 7 -11 9 -19 3
-12 1 -12 -14 0 -15 12 -17 12 -9 0 6 -11 3 -13 -13 -9 -12 4 -25 1 -29 -4 -3
-7 -1 -8 5 -4 7 4 12 1 12 -8 0 -8 -5 -18 -12 -22 -7 -4 -8 -3 -4 4 4 7 1 12
-8 12 -8 0 -18 -5 -22 -12 -5 -7 -3 -8 6 -3 9 5 11 4 6 -4 -4 -6 -12 -9 -17
-6 -5 4 -9 1 -9 -6 0 -7 -8 -5 -21 7 -15 14 -20 15 -17 4 2 -8 -2 -14 -9 -13
-6 1 -17 -5 -25 -15 -12 -15 -11 -16 5 -3 9 8 17 9 17 3 0 -15 -22 -21 -42
-11 -10 6 -19 5 -23 -1 -4 -7 -14 -7 -28 1 -21 10 -21 9 -3 -5 14 -12 23 -13
33 -5 7 7 13 7 13 2 0 -16 -45 -32 -61 -22 -17 11 -39 12 -24 1 6 -4 11 -13
13 -21 3 -12 0 -12 -11 -2 -12 9 -18 8 -31 -4 -9 -9 -16 -13 -16 -9 0 4 -6 0
-13 -11 -11 -14 -16 -15 -22 -5 -6 9 -4 11 5 5 9 -5 11 -4 6 4 -11 17 -26 4
-20 -17 5 -14 2 -13 -12 3 -14 17 -16 17 -11 2 5 -14 2 -16 -18 -13 -15 3 -23
1 -20 -5 4 -5 10 -7 15 -4 5 3 11 1 14 -4 4 -5 -5 -8 -19 -6 -22 2 -23 0 -13
-13 11 -13 10 -14 -8 -4 -14 7 -25 7 -35 0 -11 -8 -11 -9 3 -4 10 3 20 0 24
-6 4 -7 3 -8 -4 -4 -7 4 -12 3 -12 -3 0 -6 -7 -7 -17 -4 -12 5 -14 3 -8 -8 6
-11 5 -11 -4 -3 -10 9 -7 22 12 60 34 70 53 147 63 259 5 57 11 100 14 100 0
0 3 20 5 45 7 93 47 278 71 337 18 42 13 42 -21 -3z m-311 -542 c3 -5 -1 -9
-9 -9 -8 0 -12 4 -9 9 3 4 7 8 9 8 2 0 6 -4 9 -8z m546 -72 c0 -5 -5 -10 -11
-10 -5 0 -7 5 -4 10 3 6 8 10 11 10 2 0 4 -4 4 -10z m-620 -186 c0 -8 -19 -13
-24 -6 -3 5 1 9 9 9 8 0 15 -2 15 -3z"/>
<path d="M5613 3264 c0 -16 13 -19 21 -5 3 5 0 11 -7 14 -8 3 -14 -1 -14 -9z"/>
<path d="M1490 3247 c0 -5 5 -17 11 -29 9 -16 6 -25 -13 -46 -12 -14 -17 -22
-9 -17 11 6 13 4 7 -10 -5 -15 -4 -16 9 -5 11 9 13 15 5 20 -8 5 -8 9 2 12 10
4 14 -2 13 -22 0 -16 -3 -26 -7 -23 -5 2 -8 -3 -8 -12 0 -9 4 -14 9 -10 5 3
13 0 17 -6 4 -8 3 -9 -4 -5 -7 4 -12 1 -12 -8 0 -9 5 -16 12 -16 6 0 8 -3 5
-6 -4 -4 -13 -2 -20 4 -10 9 -14 8 -14 -3 0 -8 2 -13 5 -10 8 8 42 -15 41 -28
0 -9 -2 -9 -6 1 -2 6 -9 12 -14 12 -6 0 -5 -8 1 -20 7 -12 16 -18 23 -13 9 5
9 3 0 -9 -7 -8 -10 -18 -6 -22 11 -10 12 -37 2 -30 -5 3 -6 10 -3 16 4 7 2 8
-4 4 -12 -7 -5 -36 8 -36 10 0 8 -20 -4 -39 -7 -10 -3 -12 15 -7 20 6 21 5 7
-4 -20 -12 -24 -31 -7 -27 6 1 14 -5 16 -13 4 -13 3 -13 -6 0 -9 12 -11 11
-11 -7 0 -12 -5 -25 -12 -29 -7 -5 -2 -15 17 -30 26 -20 27 -24 11 -30 -14 -5
-15 -9 -4 -15 10 -7 11 -12 1 -28 -7 -12 -9 -22 -3 -26 5 -3 7 -14 5 -25 -2
-12 5 -26 18 -36 l22 -16 -25 5 c-24 6 -24 5 -6 -8 10 -8 22 -12 26 -10 4 2 7
-2 7 -10 0 -11 -4 -12 -13 -4 -8 7 -14 6 -20 -2 -4 -7 -3 -10 2 -7 5 3 18 -4
29 -15 15 -15 16 -19 4 -14 -10 3 -16 0 -16 -9 0 -8 6 -13 12 -10 22 8 34 -14
24 -46 -7 -25 -6 -28 6 -18 16 14 27 -1 14 -20 -6 -11 -9 -12 -9 -2 0 7 -5 10
-10 7 -6 -3 -13 1 -16 9 -3 9 -10 13 -15 10 -5 -3 -9 0 -9 5 0 6 -7 11 -15 11
-8 0 -15 5 -15 10 0 6 -3 9 -7 8 -11 -2 -66 24 -74 35 -3 5 -9 8 -13 8 -19 -3
-27 0 -21 8 3 5 0 13 -6 17 -8 4 -9 3 -5 -4 9 -15 7 -15 -33 -1 -18 6 -31 18
-31 27 0 15 -2 15 -10 2 -7 -12 -12 -12 -22 -2 -6 6 -20 12 -30 12 -10 0 -18
5 -18 10 0 6 -9 10 -21 10 -13 0 -18 4 -13 12 4 7 3 8 -5 4 -6 -4 -32 5 -58
19 -35 21 -42 30 -32 37 11 8 10 9 -4 4 -27 -9 -113 71 -192 179 -17 22 -33
42 -36 45 -15 12 -29 51 -23 62 4 6 3 8 -4 4 -5 -3 -19 6 -30 21 -14 19 -20
22 -18 11 1 -10 5 -20 8 -23 3 -3 4 -19 2 -36 -2 -16 0 -28 4 -25 4 2 8 -4 8
-14 0 -10 -3 -17 -6 -15 -3 2 -11 -5 -18 -15 -7 -12 -8 -21 -2 -25 6 -4 8 -11
4 -16 -3 -5 -2 -9 3 -8 25 4 36 -3 16 -11 -13 -5 -23 -15 -23 -22 0 -10 2 -10
8 -1 8 13 37 12 49 -2 4 -4 2 -5 -4 -1 -8 4 -13 2 -13 -6 0 -10 -3 -9 -11 2
-9 12 -10 12 -5 -3 3 -10 6 -21 6 -23 0 -3 4 -3 9 0 5 3 12 -1 15 -10 4 -10 2
-13 -6 -8 -8 5 -9 2 -5 -9 4 -10 1 -17 -5 -17 -6 0 -8 -3 -5 -6 4 -4 13 -1 21
5 12 10 14 9 9 -8 -3 -13 -1 -21 6 -21 7 0 10 -4 6 -9 -3 -5 2 -17 11 -25 14
-14 14 -19 2 -33 -10 -13 -10 -15 0 -9 9 6 12 3 10 -10 -2 -14 3 -18 20 -17
12 2 22 -2 22 -8 0 -5 -4 -7 -10 -4 -5 3 -10 -1 -10 -10 0 -11 5 -15 15 -12 8
4 17 1 21 -5 4 -6 3 -8 -4 -4 -7 4 -10 -1 -9 -14 1 -10 7 -22 14 -24 7 -3 10
1 6 10 -3 7 -1 14 5 14 6 0 9 -11 8 -24 -2 -18 1 -22 16 -18 14 3 17 1 11 -13
-4 -13 -3 -16 5 -11 7 4 12 2 12 -3 0 -6 5 -11 11 -11 5 0 7 5 3 12 -4 7 -3 8
4 4 6 -4 9 -13 5 -21 -3 -10 2 -15 16 -15 12 0 21 -5 21 -11 0 -5 -4 -7 -10
-4 -6 3 -7 -1 -4 -9 5 -14 8 -14 21 -1 18 18 24 19 20 3 -1 -7 4 -12 11 -10 7
1 15 -5 18 -13 3 -8 10 -12 15 -9 5 3 9 -2 9 -11 0 -9 5 -13 10 -10 6 4 7 12
4 18 -4 7 5 1 19 -12 15 -14 27 -22 27 -18 0 4 20 -4 44 -18 24 -13 46 -22 49
-18 8 7 38 -22 32 -31 -3 -3 0 -2 7 3 7 7 18 7 30 0 10 -5 18 -7 18 -3 0 3 6
1 13 -5 8 -6 18 -7 23 -3 4 4 2 -2 -6 -12 -14 -18 -14 -19 6 -8 18 9 26 8 44
-8 12 -10 28 -16 36 -13 8 3 24 -3 35 -13 19 -17 20 -17 13 2 -7 16 -5 17 7 7
9 -7 25 -14 37 -16 12 -2 25 -7 29 -12 5 -4 3 -5 -3 -2 -7 4 -18 -1 -25 -11
-13 -15 -12 -16 4 -3 9 7 17 10 17 7 0 -4 9 -2 20 4 16 9 22 8 26 -5 5 -13 9
-13 22 -3 13 11 14 11 8 0 -5 -9 -3 -13 5 -11 29 3 40 -1 33 -13 -5 -8 0 -7
11 2 10 8 16 10 12 3 -6 -9 1 -11 23 -8 27 3 30 1 19 -11 -10 -12 -9 -13 6 -8
14 6 16 4 10 -6 -5 -9 -4 -11 4 -6 6 4 9 12 6 17 -4 5 -1 9 4 9 6 0 11 -3 11
-8 0 -4 12 -8 28 -8 15 -1 38 -5 52 -9 14 -4 31 -7 38 -7 6 -1 12 -7 12 -15 0
-15 16 -18 24 -4 3 5 21 5 41 1 l34 -8 -31 47 c-17 25 -36 49 -41 52 -5 4 -6
12 -2 19 5 9 4 11 -3 6 -21 -13 -160 218 -192 319 -7 22 -19 57 -27 78 -7 21
-11 43 -8 48 4 5 1 9 -4 9 -6 0 -11 7 -11 15 0 25 -41 137 -78 210 -32 64
-144 242 -181 288 -43 53 -60 71 -61 64z m-609 -394 c13 -15 12 -15 -8 -4 -24
12 -29 21 -14 21 5 0 15 -7 22 -17z m681 -50 c-6 -2 -9 -10 -6 -15 4 -7 2 -8
-5 -4 -13 9 -5 26 12 25 9 0 8 -2 -1 -6z m25 -135 c1 -10 -3 -18 -9 -18 -6 0
-8 3 -5 7 4 3 2 11 -3 18 -7 8 -6 12 3 12 7 0 14 -9 14 -19z"/>
<path d="M5475 3231 c-3 -5 -2 -12 3 -15 5 -3 9 1 9 9 0 17 -3 19 -12 6z"/>
<path d="M5610 3230 c0 -5 5 -10 11 -10 5 0 7 5 4 10 -3 6 -8 10 -11 10 -2 0
-4 -4 -4 -10z"/>
<path d="M733 3205 c0 -8 4 -12 8 -10 13 8 18 -22 6 -36 -10 -11 -9 -11 5 0
13 10 15 18 8 31 -13 25 -27 32 -27 15z"/>
<path d="M1479 3218 c-5 -18 -6 -38 -1 -34 7 8 12 36 6 36 -2 0 -4 -1 -5 -2z"/>
<path d="M1184 3190 c0 -13 4 -16 10 -10 7 7 7 13 0 20 -6 6 -10 3 -10 -10z"/>
<path d="M5870 3160 c0 -5 5 -10 11 -10 5 0 7 5 4 10 -3 6 -8 10 -11 10 -2 0
-4 -4 -4 -10z"/>
<path d="M5410 3121 c0 -6 4 -13 10 -16 6 -3 7 1 4 9 -7 18 -14 21 -14 7z"/>
<path d="M1475 3100 c3 -5 8 -10 11 -10 2 0 4 5 4 10 0 6 -5 10 -11 10 -5 0
-7 -4 -4 -10z"/>
<path d="M1500 3010 c6 -11 15 -20 20 -20 6 0 2 9 -7 20 -10 11 -19 20 -21 20
-1 0 2 -9 8 -20z"/>
<path d="M6157 3019 c7 -7 15 -10 18 -7 3 3 -2 9 -12 12 -14 6 -15 5 -6 -5z"/>
<path d="M6134 2998 c-4 -6 -3 -8 4 -4 5 3 12 1 14 -6 3 -8 6 -9 11 -1 4 6 0
13 -8 17 -8 3 -17 0 -21 -6z"/>
<path d="M6129 2973 c-1 -4 -1 -11 0 -15 1 -8 -15 -12 -31 -9 -5 0 -8 -3 -8
-9 0 -15 15 -12 41 8 15 13 19 21 11 26 -7 4 -13 4 -13 -1z"/>
<path d="M943 2955 c0 -8 4 -12 9 -9 5 3 6 10 3 15 -9 13 -12 11 -12 -6z"/>
<path d="M833 2945 c0 -8 4 -15 9 -15 4 0 8 4 8 9 0 6 -4 12 -8 15 -5 3 -9 -1
-9 -9z"/>
<path d="M1510 2926 c0 -2 8 -10 18 -17 15 -13 16 -12 3 4 -13 16 -21 21 -21
13z"/>
<path d="M6055 2900 c-3 -5 -1 -10 4 -10 6 0 11 5 11 10 0 6 -2 10 -4 10 -3 0
-8 -4 -11 -10z"/>
<path d="M1510 2846 c0 -2 7 -7 16 -10 8 -3 12 -2 9 4 -6 10 -25 14 -25 6z"/>
<path d="M6016 2828 c3 -5 10 -6 15 -3 13 9 11 12 -6 12 -8 0 -12 -4 -9 -9z"/>
<path d="M5234 2769 c0 -22 12 -25 19 -5 3 8 0 16 -6 19 -7 3 -13 -3 -13 -14z"/>
<path d="M1538 2758 c5 -5 16 -8 23 -6 8 3 3 7 -10 11 -17 4 -21 3 -13 -5z"/>
<path d="M5946 2754 c-5 -14 -4 -15 9 -4 17 14 19 20 6 20 -5 0 -12 -7 -15
-16z"/>
<path d="M1307 2689 c7 -7 15 -10 18 -7 3 3 -2 9 -12 12 -14 6 -15 5 -6 -5z"/>
<path d="M5128 2645 c-31 -29 -40 -31 -31 -9 3 9 -11 0 -31 -21 -24 -24 -43
-35 -53 -31 -14 6 -14 4 -2 -10 13 -16 12 -16 -7 -6 -17 9 -24 9 -34 -3 -7 -8
-9 -15 -4 -15 5 0 2 -5 -6 -10 -8 -5 -24 -7 -35 -4 l-20 6 20 -16 c19 -15 19
-17 -7 -20 -7 -1 -12 -7 -11 -14 2 -7 -4 -9 -14 -5 -12 5 -14 3 -8 -8 8 -12 6
-12 -8 0 -16 12 -17 12 -10 -5 6 -17 5 -18 -12 -4 -17 14 -18 14 -7 -7 10 -19
9 -24 -6 -32 -11 -6 -24 -6 -37 1 -17 9 -18 8 -7 -3 16 -17 15 -30 -2 -23 -21
8 -68 -36 -55 -52 8 -9 5 -11 -9 -7 -11 2 -23 0 -26 -6 -5 -7 0 -9 11 -5 17 5
17 5 0 -6 -9 -6 -15 -15 -12 -21 4 -5 -2 -6 -11 -2 -11 4 -15 2 -11 -4 9 -14
-13 -31 -44 -37 -13 -3 -25 -5 -27 -5 -1 -1 3 -11 9 -23 11 -21 11 -22 -5 -9
-14 12 -16 12 -10 -3 4 -12 1 -16 -14 -16 -12 0 -24 -4 -27 -10 -3 -6 1 -7 12
-4 17 5 17 5 0 -6 -9 -6 -22 -8 -27 -5 -6 3 -10 1 -10 -5 0 -6 -4 -9 -9 -5 -5
3 -12 1 -16 -5 -4 -6 -11 -7 -17 -4 -7 4 -8 2 -4 -5 6 -9 11 -9 22 0 8 6 14 7
14 3 0 -5 -9 -15 -21 -22 -12 -8 -18 -9 -14 -3 3 6 -1 11 -10 11 -10 0 -13 -5
-9 -12 5 -7 0 -9 -14 -6 -12 3 -21 3 -20 -1 2 -20 -4 -22 -17 -5 -13 18 -14
18 -8 -6 l6 -25 -22 20 c-16 14 -22 15 -19 5 2 -8 -3 -14 -10 -12 -8 1 -11 -2
-7 -8 5 -8 12 -7 23 2 14 10 15 10 5 -2 -13 -14 -32 -20 -65 -23 -10 -1 -18
-7 -18 -14 0 -11 -5 -11 -22 -2 -18 9 -20 9 -15 -4 4 -12 0 -14 -19 -11 -17 3
-24 0 -24 -11 0 -8 -5 -15 -11 -15 -5 0 -7 6 -3 13 5 8 2 8 -9 -2 -29 -23 -19
-48 16 -42 4 0 7 -4 7 -10 0 -5 5 -7 12 -3 7 4 8 3 4 -4 -4 -8 3 -10 24 -7 17
2 28 0 25 -5 -3 -5 3 -9 12 -9 69 -3 75 -5 59 -17 -15 -11 -15 -12 -1 -18 9
-3 13 -2 10 4 -6 10 9 15 30 10 5 -1 18 -2 27 -3 23 -2 23 -13 1 -26 -16 -9
-16 -10 4 -8 12 0 21 6 20 12 -1 5 5 8 13 6 8 -2 26 -3 40 -3 20 2 22 0 10 -9
-11 -8 -7 -9 18 -4 21 4 32 3 32 -5 0 -6 -6 -8 -12 -4 -7 4 -9 3 -5 -1 10 -12
39 -16 32 -5 -3 5 3 8 14 7 11 0 18 -4 16 -7 -2 -4 10 -7 28 -8 52 -2 67 -5
67 -13 0 -4 18 -5 40 -3 25 2 39 0 35 -6 -3 -6 -1 -10 6 -10 8 0 7 -5 -2 -17
-13 -16 -12 -17 3 -4 10 7 15 17 12 22 -3 5 2 9 11 9 10 0 13 -5 9 -12 -5 -7
-3 -8 7 -2 20 12 40 14 33 3 -3 -5 0 -9 5 -9 6 0 11 5 11 11 0 5 4 8 9 5 13
-9 6 -42 -9 -38 -6 1 -8 -3 -5 -9 8 -12 30 4 30 23 0 8 39 12 120 14 118 2
142 5 218 25 20 5 43 7 49 3 6 -4 8 -3 4 4 -3 6 9 15 31 23 43 14 71 30 126
72 20 16 37 27 37 24 0 -2 42 37 93 89 84 84 119 121 196 208 l26 29 -47 -32
c-28 -20 -51 -30 -59 -26 -7 5 -10 4 -5 -3 3 -6 2 -13 -4 -17 -5 -3 -10 0 -11
7 0 7 -4 3 -9 -9 -6 -14 -18 -23 -30 -23 -12 0 -19 -4 -16 -8 3 -5 -1 -9 -9
-9 -8 0 -12 4 -9 9 3 4 0 8 -5 8 -6 0 -11 -6 -11 -14 0 -21 -18 -30 -34 -17
-16 13 -37 -5 -29 -25 3 -8 -1 -14 -11 -14 -10 0 -13 5 -9 17 6 15 5 16 -9 3
-8 -8 -13 -21 -10 -29 4 -10 1 -12 -9 -5 -20 12 -40 14 -33 3 3 -5 10 -6 16
-3 7 4 8 2 4 -5 -4 -6 -11 -9 -16 -6 -5 3 -11 1 -15 -5 -4 -6 -11 -7 -17 -4
-6 4 -13 3 -17 -2 -3 -5 -26 -15 -51 -21 -34 -9 -47 -9 -52 0 -6 9 -8 9 -8 -1
0 -7 -4 -10 -10 -7 -5 3 -10 2 -10 -2 0 -14 -76 -8 -96 7 -17 13 -18 13 -7 -1
11 -14 4 -15 -65 -15 -58 1 -76 4 -74 14 1 8 -2 11 -8 7 -6 -3 -8 -10 -5 -15
3 -5 -8 -8 -25 -8 -26 1 -28 3 -18 17 11 14 10 14 -7 0 -12 -10 -35 -16 -58
-15 -20 1 -43 -1 -49 -5 -8 -5 -22 0 -34 12 -18 17 -22 18 -27 5 -4 -10 -1
-13 7 -10 8 3 17 1 20 -4 3 -5 -8 -9 -25 -10 -20 0 -27 3 -22 11 5 8 2 8 -9 0
-8 -7 -18 -10 -21 -7 -5 6 56 54 68 54 8 0 75 70 91 95 9 14 21 22 28 18 6 -3
8 -3 4 2 -11 12 31 87 44 79 6 -4 8 -3 4 4 -6 11 71 165 131 260 18 29 33 55
33 59 0 3 7 15 17 25 26 29 -7 23 -39 -7z m-141 -90 c0 -8 -4 -12 -9 -9 -5 3
-6 10 -3 15 9 13 12 11 12 -6z m-212 -175 c-10 -11 -23 -20 -29 -20 -6 0 0 9
14 20 32 25 38 25 15 0z m775 -210 c0 -5 -5 -10 -11 -10 -5 0 -7 5 -4 10 3 6
8 10 11 10 2 0 4 -4 4 -10z m-816 -118 c3 -5 -1 -9 -9 -9 -8 0 -12 4 -9 9 3 4
7 8 9 8 2 0 6 -4 9 -8z"/>
<path d="M910 2642 c0 -5 7 -9 15 -9 8 0 12 4 9 9 -3 4 -9 8 -15 8 -5 0 -9 -4
-9 -8z"/>
<path d="M1905 2627 c10 -17 13 -27 6 -32 -6 -3 -11 -12 -11 -18 0 -7 4 -6 10
3 7 12 12 12 21 3 10 -10 9 -14 -4 -19 -9 -3 -17 -10 -17 -16 0 -5 4 -7 8 -4
4 2 14 1 22 -4 11 -7 12 -11 0 -24 -7 -9 -10 -19 -6 -23 3 -3 6 -2 6 3 0 5 9
10 21 10 19 0 19 -1 2 -14 -15 -10 -15 -14 -4 -21 8 -5 10 -14 6 -21 -6 -9 -4
-11 4 -6 7 5 10 14 7 22 -3 7 0 16 7 20 7 4 9 3 4 -1 -4 -5 0 -20 10 -34 15
-24 15 -25 0 -12 -9 7 -17 9 -17 3 0 -14 26 -33 34 -25 4 4 4 0 0 -10 -3 -10
-1 -17 5 -17 6 0 11 -7 11 -15 0 -9 7 -18 15 -21 11 -5 12 -9 2 -19 -7 -7 -16
-10 -21 -7 -5 3 -6 0 -2 -7 6 -9 11 -9 24 1 14 12 14 10 2 -12 -12 -23 -12
-24 3 -11 19 15 19 13 19 -39 -1 -28 1 -32 9 -17 6 9 7 23 4 30 -4 6 1 3 9 -7
13 -16 13 -22 3 -35 -10 -12 -9 -13 2 -6 11 6 13 4 9 -7 -4 -8 -2 -21 4 -29 8
-11 9 -10 4 4 -3 9 -1 17 4 17 6 0 10 -7 10 -16 0 -9 5 -12 13 -8 10 6 10 4 0
-7 -7 -7 -13 -18 -13 -23 0 -6 5 -4 10 4 7 11 10 11 10 2 0 -7 5 -10 10 -7 6
3 10 -1 10 -10 0 -9 -4 -14 -8 -11 -5 3 -9 -1 -9 -9 0 -8 2 -13 5 -10 3 2 14
0 26 -6 20 -10 20 -10 2 5 -11 9 -15 16 -9 16 7 0 15 -5 18 -10 4 -6 11 -8 16
-5 5 3 6 -2 2 -11 -4 -11 -2 -15 4 -11 6 4 14 0 17 -9 3 -8 10 -12 16 -9 6 3
13 -1 16 -9 3 -9 12 -16 20 -16 19 0 18 -19 -2 -27 -8 -3 -30 4 -47 17 -18 13
-26 17 -19 9 20 -21 14 -28 -18 -19 -16 5 -30 5 -30 0 0 -4 -9 -6 -20 -3 -11
3 -17 10 -13 17 4 7 1 7 -8 -1 -12 -10 -18 -10 -29 0 -10 9 -11 9 -6 0 4 -7 3
-13 -1 -13 -5 0 -15 6 -22 13 -8 6 -11 7 -8 1 9 -15 -83 -15 -102 0 -11 8 -13
8 -7 -1 5 -10 -3 -13 -29 -13 -26 0 -34 4 -29 13 6 9 4 9 -7 0 -16 -16 -33
-17 -24 -2 4 6 -2 5 -13 -2 -17 -11 -24 -10 -38 2 -16 12 -17 12 -9 -1 7 -13
6 -13 -7 -2 -10 8 -19 9 -22 3 -4 -6 -19 -4 -42 5 -19 8 -39 12 -44 9 -5 -3
-19 5 -31 17 -12 13 -18 17 -14 9 5 -9 3 -12 -6 -9 -8 3 -13 10 -12 15 1 6
-10 8 -24 5 -20 -4 -24 -2 -18 8 5 8 4 11 -1 7 -13 -8 -125 48 -116 58 4 5 2
5 -4 2 -7 -4 -28 4 -48 18 -20 14 -41 25 -45 25 -5 0 -14 7 -21 14 -6 8 -28
25 -48 36 l-37 22 23 -25 c13 -14 20 -27 15 -29 -4 -3 -3 -4 3 -2 7 1 22 -8
34 -21 16 -17 18 -25 9 -30 -7 -5 -10 -4 -5 3 3 6 2 13 -3 16 -13 8 -8 -13 10
-48 13 -24 17 -26 22 -12 5 11 3 15 -5 10 -7 -4 -8 -3 -4 4 4 7 2 12 -5 12 -7
0 -10 3 -6 6 3 3 16 -1 29 -10 12 -9 17 -16 11 -16 -16 0 -9 -33 8 -38 12 -3
12 -2 0 6 -8 6 -9 12 -3 16 5 3 13 -1 16 -9 3 -9 -1 -18 -9 -21 -8 -4 -15 -11
-15 -17 0 -7 4 -7 12 1 20 20 35 14 33 -13 -2 -14 1 -23 6 -19 5 3 7 9 5 13
-3 4 1 8 9 8 11 0 12 -5 3 -21 -10 -19 -10 -20 6 -7 9 8 19 11 23 7 3 -3 1 -6
-5 -6 -7 0 -12 -5 -12 -11 0 -6 5 -9 12 -7 7 3 22 -6 34 -19 11 -12 25 -19 30
-15 5 4 0 -4 -11 -18 -11 -14 -13 -19 -4 -13 12 10 18 8 29 -7 18 -25 31 -26
24 -2 -5 14 -4 14 4 2 8 -10 7 -19 -1 -30 -6 -8 -7 -12 -2 -7 4 4 16 0 26 -9
13 -12 19 -12 25 -3 5 8 3 10 -6 4 -9 -6 -11 -4 -5 4 5 9 13 8 29 -7 22 -20
56 -36 69 -34 12 3 8 -16 -5 -21 -7 -3 -3 -4 9 -4 12 1 19 6 15 12 -3 5 1 4
10 -2 8 -7 18 -10 21 -6 6 5 11 -10 9 -28 -1 -3 6 -6 13 -6 12 0 12 3 2 15
-10 13 -9 14 8 5 11 -6 29 -9 40 -7 l20 3 -20 -16 c-20 -16 -16 -15 30 3 8 3
15 1 15 -6 0 -6 -4 -9 -9 -6 -5 3 -15 -2 -22 -12 -12 -15 -12 -16 1 -6 8 6 23
10 32 9 10 -2 20 1 24 6 3 5 10 9 15 9 6 0 7 -4 4 -10 -3 -5 -2 -10 4 -10 5 0
12 6 15 13 5 10 7 10 12 0 3 -7 10 -13 15 -13 6 0 8 3 6 8 -3 4 10 7 28 7 20
0 31 -3 27 -10 -3 -5 2 -4 11 4 14 11 17 11 17 0 0 -11 2 -11 10 1 9 13 10 13
10 0 0 -9 3 -11 8 -5 4 6 32 11 62 13 30 2 72 7 93 12 21 4 37 4 37 -1 0 -5 5
-9 11 -9 5 0 7 5 4 10 -4 6 8 11 27 12 37 1 42 2 78 11 14 4 37 9 53 12 57 10
81 16 88 21 4 2 27 7 51 10 24 4 48 10 53 14 6 5 24 10 40 12 22 2 29 -1 27
-11 -3 -12 0 -12 12 -1 19 15 21 24 4 14 -9 -5 -10 -4 -3 4 6 6 19 13 30 15
11 1 25 6 31 9 6 4 11 1 11 -7 0 -8 -4 -12 -9 -9 -4 3 -8 0 -8 -5 0 -6 -5 -11
-11 -11 -6 0 -25 -10 -42 -22 -17 -12 -27 -16 -22 -8 6 10 4 12 -10 6 -16 -6
-16 -4 -4 11 13 16 12 17 -3 4 -10 -7 -18 -20 -18 -28 0 -8 -4 -12 -10 -8 -5
3 -6 13 -3 23 3 9 4 15 2 12 -35 -41 -43 -54 -26 -41 9 7 17 9 17 3 0 -15 -26
-22 -38 -10 -6 6 -12 6 -17 -3 -6 -8 -4 -10 6 -4 10 6 11 5 3 -4 -6 -7 -22
-13 -35 -13 -13 -1 -33 -7 -43 -14 -14 -10 -24 -10 -39 -3 -13 8 -17 8 -13 1
3 -6 2 -13 -4 -17 -5 -3 -10 0 -10 7 0 8 -5 6 -11 -5 -7 -13 -15 -15 -28 -8
-11 6 -22 6 -32 -1 -11 -8 -9 -8 6 -3 16 5 18 4 8 -6 -10 -10 -16 -10 -25 -1
-14 14 -32 16 -23 3 3 -5 1 -12 -4 -15 -5 -4 -12 2 -14 11 -4 16 -5 16 -6 1
-1 -11 -7 -15 -23 -10 -16 4 -19 2 -13 -8 6 -10 4 -11 -6 -4 -19 12 -51 16
-45 6 6 -11 -25 -9 -43 3 -10 5 -12 4 -7 -3 4 -7 2 -12 -3 -12 -6 0 -11 6 -11
13 0 8 -2 9 -8 1 -4 -7 -20 -12 -37 -12 -16 0 -33 5 -37 12 -6 8 -8 8 -8 0 0
-7 -15 -12 -35 -12 -32 0 -34 2 -23 17 11 14 11 14 -3 4 -9 -7 -20 -9 -24 -5
-5 4 -5 1 -1 -6 11 -19 -35 -12 -51 8 -6 8 -15 12 -19 7 -4 -4 -2 -7 5 -7 7 0
9 -5 6 -10 -4 -6 -10 -8 -13 -6 -8 5 -129 19 -155 18 -9 0 -15 2 -13 6 3 4 -4
8 -15 8 -19 0 -19 -1 -3 -13 9 -7 14 -19 11 -27 -4 -9 -3 -15 1 -15 20 3 23
-3 11 -18 -12 -16 -12 -17 2 -6 9 7 20 9 25 5 5 -4 0 4 -11 17 l-20 25 27 -20
c21 -15 24 -22 15 -33 -9 -12 -9 -13 1 -7 6 4 12 3 12 -3 0 -5 9 -13 21 -16
17 -6 18 -9 7 -23 -12 -15 -11 -16 5 -3 18 14 18 16 -5 34 -23 19 -23 19 9 1
18 -10 30 -21 27 -26 -3 -4 0 -8 7 -8 8 0 7 -5 -2 -17 -13 -15 -12 -15 12 0
28 19 46 12 27 -10 -9 -11 -6 -13 19 -8 22 3 33 1 37 -10 3 -8 13 -15 21 -15
10 0 13 -5 9 -11 -5 -9 1 -10 20 -5 20 5 26 3 26 -10 0 -10 5 -14 15 -10 9 3
18 -1 21 -9 3 -8 12 -11 22 -7 14 5 15 3 5 -9 -10 -13 -10 -16 2 -16 8 0 15 7
15 16 1 14 3 13 14 -2 8 -10 20 -15 30 -11 9 3 16 1 16 -6 0 -6 -4 -9 -9 -5
-5 3 -12 1 -15 -4 -7 -11 13 -9 31 2 7 5 21 -1 34 -14 14 -14 20 -17 16 -7 -7
20 21 18 34 -3 5 -9 9 -10 9 -2 0 6 9 11 19 10 11 0 18 -4 15 -8 -2 -4 10 -6
28 -5 18 2 39 -2 47 -8 11 -8 13 -8 7 2 -5 8 0 12 14 12 14 0 19 -4 14 -12 -4
-6 3 -4 17 5 26 19 43 22 34 8 -3 -5 8 -3 25 6 17 8 38 12 46 9 8 -3 12 -2 9
4 -6 9 10 14 42 13 7 -1 11 2 9 6 -3 4 17 16 45 26 27 11 49 23 49 28 0 5 7 6
16 3 10 -4 13 -2 8 6 -5 8 -2 9 10 5 9 -4 15 -3 12 2 -3 5 13 21 37 36 23 16
68 48 100 72 33 24 63 41 70 37 7 -4 9 -4 5 1 -8 8 29 40 45 40 4 0 12 6 16
14 5 8 16 11 25 8 8 -3 18 -1 22 5 5 7 2 8 -7 4 -8 -4 -5 0 6 9 11 9 28 14 38
11 9 -2 15 0 12 4 -6 9 79 39 108 37 18 0 25 -17 6 -17 -5 0 -7 -5 -3 -12 4
-7 3 -8 -5 -4 -6 4 -8 12 -5 18 5 7 2 8 -5 4 -7 -5 -10 -15 -7 -23 3 -8 2 -12
-3 -9 -5 3 -14 -1 -21 -9 -7 -8 -16 -12 -21 -10 -4 3 -13 -3 -18 -14 -7 -13
-20 -18 -40 -17 -26 2 -28 0 -18 -13 9 -12 9 -13 0 -7 -7 4 -13 2 -13 -3 0 -6
-4 -11 -10 -11 -5 0 -7 7 -4 15 4 8 1 15 -4 15 -6 0 -9 -12 -6 -27 4 -25 3
-26 -9 -11 -12 15 -14 15 -25 -3 -7 -11 -18 -17 -24 -13 -7 5 -8 3 -4 -5 6 -9
13 -8 27 5 10 9 19 13 19 8 0 -12 -42 -39 -57 -36 -7 2 -17 -7 -23 -18 -7 -13
-18 -19 -26 -16 -8 3 -14 -1 -14 -9 0 -8 -5 -15 -11 -15 -5 0 -7 -6 -3 -12 4
-7 4 -10 -1 -6 -4 4 -15 2 -23 -5 -13 -10 -14 -9 -7 2 5 10 4 12 -4 7 -6 -4
-20 -2 -29 6 -15 12 -16 11 -3 -4 11 -15 11 -19 -3 -24 -9 -4 -23 -21 -31 -38
-12 -25 -14 -26 -9 -6 4 19 3 22 -5 10 -6 -8 -11 -23 -11 -33 0 -10 -4 -16
-10 -12 -5 3 -7 13 -4 23 5 14 3 14 -10 -2 -9 -11 -16 -27 -16 -35 0 -14 -1
-14 -10 -1 -6 9 -10 10 -10 3 0 -7 -10 -22 -22 -34 -13 -12 -18 -19 -12 -16 7
4 15 0 18 -9 9 -23 7 -31 -3 -15 -6 9 -8 4 -8 -17 1 -20 5 -28 11 -22 14 14
26 12 20 -3 -3 -8 4 -13 18 -14 13 -1 24 -7 26 -13 8 -22 35 -7 99 54 37 36
71 62 77 59 5 -3 6 -1 3 4 -10 15 166 171 186 165 5 -1 6 2 2 8 -3 5 -3 10 2
10 4 0 24 14 43 30 19 16 38 30 41 30 3 0 19 11 35 25 16 14 35 23 42 20 7 -3
11 -1 8 4 -7 11 132 84 166 86 24 2 26 0 15 -13 -10 -13 -9 -14 11 -3 19 10
23 9 30 -6 4 -10 13 -19 21 -21 12 -3 12 0 2 12 -11 13 -9 13 13 3 14 -7 26
-19 26 -27 0 -13 1 -13 10 0 6 10 10 11 10 2 0 -6 3 -11 8 -11 19 3 32 -2 32
-12 0 -8 -4 -8 -14 0 -11 9 -16 9 -22 0 -4 -8 -3 -9 5 -5 6 4 14 0 17 -8 5
-14 8 -14 21 -1 17 18 33 11 33 -13 0 -15 2 -15 10 -2 7 11 10 11 10 2 0 -8 5
-10 13 -6 8 6 8 3 -1 -9 -12 -14 -11 -16 7 -12 23 4 29 -10 9 -19 -7 -3 -2 -3
11 0 16 4 21 3 17 -5 -4 -6 0 -11 9 -11 10 0 13 5 9 12 -5 7 -3 8 5 4 7 -5 10
-10 7 -13 -8 -8 23 -35 33 -28 9 5 27 -32 23 -47 -1 -5 3 -8 9 -8 6 0 8 7 5
16 -5 13 -4 14 7 6 8 -7 17 -10 21 -7 3 3 2 -1 -4 -7 -13 -16 -13 -28 1 -28 5
0 7 5 4 10 -3 6 -1 10 4 10 6 0 11 -4 11 -8 0 -5 10 -14 23 -21 12 -6 14 -9 4
-6 -11 3 -16 1 -11 -6 3 -6 15 -8 26 -6 16 5 17 3 6 -10 -11 -14 -10 -15 12
-8 22 7 23 6 11 -9 -18 -21 -7 -33 14 -16 9 7 15 9 14 4 -3 -18 1 -37 7 -31 4
4 15 -3 25 -15 11 -11 19 -17 19 -12 0 5 5 1 11 -9 5 -9 8 -21 4 -26 -3 -5 6
-8 19 -7 14 2 25 0 24 -3 -2 -18 3 -31 13 -31 5 0 7 5 3 12 -4 7 -3 8 5 4 9
-6 9 -11 -1 -23 -11 -14 -10 -15 8 -9 18 6 21 3 19 -19 -3 -22 -1 -24 17 -14
15 8 19 8 14 0 -4 -7 1 -11 13 -11 10 0 21 -4 23 -10 4 -13 17 -2 62 54 l40
49 -35 29 c-18 16 -33 34 -31 39 1 6 -2 8 -8 4 -14 -9 -42 14 -33 28 3 6 1 7
-5 3 -15 -9 -84 43 -75 57 3 6 1 7 -6 3 -15 -10 -43 13 -34 27 3 6 1 7 -5 3
-14 -9 -64 23 -56 35 3 5 2 9 -3 8 -17 -3 -32 1 -45 14 -23 21 -139 97 -149
97 -5 0 -9 4 -9 9 0 5 -8 11 -17 15 -10 3 -40 19 -68 36 -27 16 -58 33 -67 36
-10 3 -18 12 -18 20 0 7 -6 11 -14 8 -8 -3 -17 -1 -20 4 -4 7 40 15 82 13 49
-2 61 -4 57 -12 -3 -4 -1 -11 5 -14 6 -4 9 -2 8 3 -2 6 2 10 7 10 6 0 9 -3 8
-7 -1 -3 15 -6 35 -5 36 2 36 2 14 -15 -21 -16 -22 -17 -3 -17 11 0 18 3 15 7
-2 4 5 9 15 12 13 3 18 0 15 -8 -3 -6 3 -18 12 -26 12 -9 15 -10 10 -1 -11 18
29 16 44 -3 10 -12 10 -15 0 -15 -8 0 -11 -3 -8 -6 4 -3 15 -1 27 5 17 10 19
8 16 -10 -3 -17 -2 -19 10 -9 12 10 16 9 21 -4 3 -9 11 -13 18 -9 6 4 5 -1 -3
-10 -8 -10 -11 -20 -7 -24 3 -3 6 -1 6 5 0 7 7 12 15 12 8 0 15 -5 15 -11 0
-5 4 -8 8 -5 4 2 14 0 22 -6 12 -8 12 -9 -2 -4 -24 7 -31 -9 -11 -25 9 -8 14
-9 10 -3 -4 7 2 14 13 17 17 4 18 2 9 -15 -7 -13 -7 -18 -1 -14 6 3 12 3 15
-1 2 -5 2 -3 1 4 -2 7 3 10 11 6 8 -3 12 -10 8 -16 -4 -6 0 -8 10 -4 17 7 41
-15 29 -28 -4 -5 1 -5 11 -2 12 5 16 3 11 -5 -5 -8 -2 -9 10 -5 13 5 19 1 23
-14 4 -13 11 -18 20 -14 11 3 13 1 10 -10 -7 -18 9 -30 19 -14 5 8 3 9 -6 4
-9 -6 -11 -4 -5 4 5 9 10 10 18 2 7 -7 6 -15 -2 -25 -9 -11 -9 -16 1 -22 7 -4
10 -4 6 1 -4 4 -3 14 3 21 8 10 16 10 35 2 13 -6 24 -15 24 -20 0 -5 -12 -1
-27 8 -19 11 -22 11 -11 2 10 -8 15 -18 11 -21 -3 -4 4 -5 15 -2 11 2 26 -3
33 -11 9 -11 15 -12 25 -3 11 9 14 8 14 0 0 -7 5 -9 10 -6 6 3 19 3 31 0 16
-5 18 -9 8 -21 -10 -12 -9 -13 5 -8 9 3 16 10 16 16 0 5 5 6 10 3 6 -4 7 -12
3 -18 -5 -9 -3 -9 8 0 12 10 18 10 29 0 9 -9 11 -9 6 0 -4 8 1 11 14 10 11 -1
20 -7 20 -14 0 -7 5 -13 11 -13 5 0 7 5 4 10 -4 7 6 10 27 9 36 -1 107 9 122
19 5 3 6 -3 3 -14 -6 -17 -6 -17 6 -3 11 15 71 36 90 31 4 -1 7 3 7 9 0 5 4 8
9 4 5 -3 13 0 16 6 4 5 13 8 21 5 8 -3 14 -1 14 4 0 4 15 13 33 19 62 21 336
193 337 212 0 4 -18 3 -40 -1 -27 -5 -40 -4 -40 4 0 7 -3 7 -8 1 -9 -13 -52
-17 -52 -5 0 6 -5 10 -11 10 -5 0 -7 -5 -3 -11 5 -9 -1 -10 -20 -5 -16 4 -26
2 -26 -4 0 -7 -6 -7 -20 0 -15 8 -20 8 -20 -1 0 -8 -5 -7 -17 2 -9 8 -14 9
-10 3 5 -8 -11 -12 -53 -12 -33 0 -58 4 -55 8 2 4 15 6 28 5 15 -2 24 2 24 11
0 10 -4 11 -14 3 -10 -9 -17 -8 -30 2 -9 8 -14 9 -10 3 11 -18 -14 -30 -58
-28 -70 2 -69 2 -54 22 13 16 13 16 -5 2 -20 -15 -86 -22 -86 -8 0 4 -7 4 -17
1 -11 -5 -14 -3 -8 6 6 10 3 11 -14 2 -11 -7 -21 -8 -21 -4 0 4 -10 9 -22 9
-13 1 -32 4 -43 7 -11 3 -28 6 -37 6 -10 1 -26 10 -37 22 -12 13 -21 17 -26
10 -3 -6 -11 -11 -16 -11 -6 0 -8 4 -4 9 3 6 -3 9 -12 9 -10 -1 -46 9 -81 23
-43 17 -61 28 -57 38 5 12 3 12 -12 0 -15 -12 -16 -12 -10 5 6 16 5 17 -8 6
-13 -11 -18 -11 -28 0 -10 10 -9 11 2 5 9 -5 12 -4 8 3 -4 5 -16 8 -26 5 -10
-3 -22 0 -25 6 -4 6 -16 11 -27 11 -10 0 -19 4 -19 8 0 5 -23 14 -50 21 -28 7
-48 16 -46 19 2 4 -7 8 -20 8 -47 3 -75 14 -68 27 5 9 4 9 -6 0 -8 -8 -20 -9
-36 -3 -13 5 -24 7 -24 4 0 -4 -6 -1 -14 5 -11 9 -15 9 -19 -1 -4 -10 -8 -10
-15 1 -9 12 -13 12 -26 2 -13 -11 -16 -11 -16 0 0 11 -2 11 -10 -1 -6 -10 -10
-11 -10 -2 0 6 -5 12 -11 12 -5 0 -7 -6 -3 -12 6 -10 5 -10 -7 -1 -9 7 -20 9
-25 4 -14 -13 -94 -30 -94 -20 0 5 -5 9 -11 9 -5 0 -7 -4 -4 -10 3 -5 3 -10
-2 -11 -21 -2 -45 -8 -50 -13 -3 -3 -14 -1 -23 4 -14 7 -17 6 -16 -8 1 -12 -6
-17 -21 -16 -13 1 -23 -3 -23 -8 0 -5 -5 -6 -10 -3 -6 4 -7 12 -3 18 4 7 -2 5
-13 -3 -29 -22 -30 -24 -11 -17 11 4 16 3 12 -3 -9 -14 -41 -12 -57 3 -7 6
-22 13 -33 14 -11 1 -29 4 -40 7 -11 2 -28 5 -38 5 -10 1 -16 5 -13 10 7 11
-13 9 -31 -2 -7 -5 -13 -4 -13 2 0 5 -20 8 -45 7 -24 -1 -42 1 -39 6 3 4 0 8
-5 8 -6 0 -11 -5 -11 -11 0 -8 -5 -8 -15 1 -8 7 -12 17 -8 23 3 6 1 7 -6 3 -9
-6 -9 -11 0 -22 14 -17 5 -18 -23 -3 -16 9 -19 8 -13 -2 6 -9 3 -11 -8 -6 -10
4 -17 1 -17 -6 0 -8 -4 -6 -10 3 -6 9 -10 11 -10 3 0 -7 -7 -10 -15 -7 -8 4
-15 2 -15 -4 0 -6 -8 -9 -17 -7 -10 2 -22 4 -26 4 -5 1 -5 6 -1 13 4 7 3 8 -5
4 -8 -5 -9 -12 -2 -20 8 -9 3 -13 -19 -14 -72 -5 -77 -6 -76 -21 1 -10 -6 -15
-16 -13 -10 2 -18 -2 -18 -7 0 -6 -7 -8 -17 -4 -14 5 -13 8 6 15 13 4 27 6 32
2 5 -3 9 -2 9 1 0 9 -74 41 -102 44 -9 1 -9 4 2 12 13 9 12 10 -3 5 -9 -3 -32
1 -50 9 -31 13 -57 22 -67 23 -3 0 -28 12 -56 26 -29 14 -57 26 -63 26 -6 0
-11 4 -11 10 0 5 -3 9 -7 8 -18 -5 -65 31 -163 128 -107 104 -151 144 -228
203 -33 26 -40 36 -30 43 9 6 6 7 -9 3 -13 -3 -25 -1 -30 7 -4 7 -15 18 -25
23 -9 6 -45 30 -80 55 -90 65 -93 66 -73 37z m422 -602 c0 -8 -4 -12 -9 -9 -5
3 -6 10 -3 15 9 13 12 11 12 -6z m523 -91 c0 -2 -7 -4 -15 -4 -8 0 -15 4 -15
10 0 5 7 7 15 4 8 -4 15 -8 15 -10z m35 -344 c3 -5 -1 -10 -10 -10 -9 0 -13 5
-10 10 3 6 8 10 10 10 2 0 7 -4 10 -10z m1545 -41 c0 -6 -4 -7 -10 -4 -5 3
-10 11 -10 16 0 6 5 7 10 4 6 -3 10 -11 10 -16z"/>
<path d="M5035 2630 c-3 -5 -1 -10 4 -10 6 0 11 5 11 10 0 6 -2 10 -4 10 -3 0
-8 -4 -11 -10z"/>
<path d="M5500 2619 c0 -5 5 -7 10 -4 6 3 10 8 10 11 0 2 -4 4 -10 4 -5 0 -10
-5 -10 -11z"/>
<path d="M1450 2600 c0 -5 5 -10 11 -10 5 0 7 5 4 10 -3 6 -8 10 -11 10 -2 0
-4 -4 -4 -10z"/>
<path d="M5016 2598 c3 -4 11 -5 19 -1 21 7 19 12 -4 10 -11 0 -18 -5 -15 -9z"/>
<path d="M1480 2560 c-9 -6 -10 -10 -3 -10 6 0 15 5 18 10 8 12 4 12 -15 0z"/>
<path d="M1610 2500 c0 -5 5 -10 11 -10 5 0 7 5 4 10 -3 6 -8 10 -11 10 -2 0
-4 -4 -4 -10z"/>
<path d="M5135 2500 c-3 -5 -1 -10 4 -10 6 0 11 5 11 10 0 6 -2 10 -4 10 -3 0
-8 -4 -11 -10z"/>
<path d="M4823 2445 c0 -7 6 -11 14 -8 7 3 13 6 13 8 0 2 -6 5 -13 8 -8 3 -14
-1 -14 -8z"/>
<path d="M5109 2443 c-1 -5 -2 -14 -3 -21 0 -7 -8 -17 -16 -22 -8 -5 -10 -10
-4 -10 16 0 31 21 31 43 0 17 -6 24 -8 10z"/>
<path d="M1975 2400 c-3 -6 1 -7 9 -4 18 7 21 14 7 14 -6 0 -13 -4 -16 -10z"/>
<path d="M1999 2381 c8 -5 10 -14 6 -22 -5 -8 -5 -11 0 -7 4 4 15 2 23 -5 11
-9 11 -4 -2 16 -10 15 -23 27 -30 27 -6 0 -5 -4 3 -9z"/>
<path d="M1230 2351 c0 -5 5 -13 10 -16 6 -3 10 -2 10 4 0 5 -4 13 -10 16 -5
3 -10 2 -10 -4z"/>
<path d="M5060 2339 c0 -5 5 -7 10 -4 6 3 10 8 10 11 0 2 -4 4 -10 4 -5 0 -10
-5 -10 -11z"/>
<path d="M1275 2320 c3 -5 8 -10 11 -10 2 0 4 5 4 10 0 6 -5 10 -11 10 -5 0
-7 -4 -4 -10z"/>
<path d="M1355 2290 c-3 -5 -1 -10 4 -10 6 0 11 5 11 10 0 6 -2 10 -4 10 -3 0
-8 -4 -11 -10z"/>
<path d="M4636 2291 c-3 -4 4 -7 14 -6 27 2 33 10 10 12 -11 1 -22 -2 -24 -6z"/>
<path d="M1496 2242 c-3 -5 1 -9 9 -9 8 0 12 4 9 9 -3 4 -7 8 -9 8 -2 0 -6 -4
-9 -8z"/>
<path d="M5644 2242 c3 -5 0 -13 -6 -15 -9 -4 -10 -6 -1 -6 17 -1 25 16 12 25
-7 4 -9 3 -5 -4z"/>
<path d="M1300 2199 c0 -5 5 -7 10 -4 6 3 10 8 10 11 0 2 -4 4 -10 4 -5 0 -10
-5 -10 -11z"/>
<path d="M5350 2121 c0 -6 4 -13 10 -16 6 -3 7 1 4 9 -7 18 -14 21 -14 7z"/>
<path d="M1995 2100 c-3 -5 -1 -10 4 -10 6 0 11 5 11 10 0 6 -2 10 -4 10 -3 0
-8 -4 -11 -10z"/>
<path d="M4333 2095 c0 -8 4 -12 9 -9 5 3 6 10 3 15 -9 13 -12 11 -12 -6z"/>
<path d="M2248 2050 c20 -20 25 -19 17 2 -3 8 -12 15 -20 15 -12 0 -11 -4 3
-17z"/>
<path d="M3730 2059 c0 -5 5 -7 10 -4 6 3 10 8 10 11 0 2 -4 4 -10 4 -5 0 -10
-5 -10 -11z"/>
<path d="M3615 2040 c-3 -5 -1 -10 4 -10 6 0 11 5 11 10 0 6 -2 10 -4 10 -3 0
-8 -4 -11 -10z"/>
<path d="M1490 2006 c0 -2 8 -10 18 -17 15 -13 16 -12 3 4 -13 16 -21 21 -21
13z"/>
<path d="M3730 1900 c0 -5 5 -10 11 -10 5 0 7 5 4 10 -3 6 -8 10 -11 10 -2 0
-4 -4 -4 -10z"/>
<path d="M1655 1880 c10 -11 20 -20 23 -20 3 0 -3 9 -13 20 -10 11 -20 20 -23
20 -3 0 3 -9 13 -20z"/>
<path d="M2556 1861 c-3 -5 2 -15 12 -22 15 -12 16 -12 5 2 -7 9 -10 19 -6 22
3 4 4 7 0 7 -3 0 -8 -4 -11 -9z"/>
<path d="M4635 1859 c-3 -4 2 -6 10 -5 21 3 28 13 10 13 -9 0 -18 -4 -20 -8z"/>
<path d="M3202 1844 c-12 -8 -20 -20 -16 -25 7 -12 21 -3 34 22 13 23 11 23
-18 3z"/>
<path d="M4749 1837 c6 -8 7 -18 3 -22 -4 -5 -1 -5 6 -1 10 6 10 11 1 22 -6 8
-14 14 -16 14 -3 0 0 -6 6 -13z"/>
<path d="M2436 1822 c-2 -4 -1 -14 4 -22 7 -11 9 -9 7 8 -1 24 -3 26 -11 14z"/>
<path d="M5070 1820 c0 -5 5 -10 10 -10 6 0 10 5 10 10 0 6 -4 10 -10 10 -5 0
-10 -4 -10 -10z"/>
<path d="M5205 1820 c-3 -6 1 -7 9 -4 18 7 21 14 7 14 -6 0 -13 -4 -16 -10z"/>
<path d="M3153 1805 c-3 -9 -3 -18 -1 -21 3 -3 8 4 11 16 6 23 -1 27 -10 5z"/>
<path d="M2256 1798 c3 -5 10 -6 15 -3 13 9 11 12 -6 12 -8 0 -12 -4 -9 -9z"/>
<path d="M5007 1799 c7 -7 15 -10 18 -7 3 3 -2 9 -12 12 -14 6 -15 5 -6 -5z"/>
<path d="M2115 1791 c-6 -11 13 -26 22 -17 4 3 1 6 -6 6 -7 0 -9 5 -6 10 3 6
4 10 1 10 -3 0 -7 -4 -11 -9z"/>
<path d="M4026 1783 c-6 -14 -5 -15 5 -6 7 7 10 15 7 18 -3 3 -9 -2 -12 -12z"/>
<path d="M1990 1780 c-9 -6 -10 -10 -3 -10 6 0 15 5 18 10 8 12 4 12 -15 0z"/>
<path d="M2225 1780 c-3 -6 1 -7 9 -4 18 7 21 14 7 14 -6 0 -13 -4 -16 -10z"/>
<path d="M2060 1776 c0 -2 7 -7 16 -10 8 -3 12 -2 9 4 -6 10 -25 14 -25 6z"/>
<path d="M3686 1753 c-6 -14 -5 -15 5 -6 7 7 10 15 7 18 -3 3 -9 -2 -12 -12z"/>
<path d="M2966 1698 c3 -5 10 -6 15 -3 13 9 11 12 -6 12 -8 0 -12 -4 -9 -9z"/>
<path d="M4190 1680 c0 -5 5 -10 11 -10 5 0 7 5 4 10 -3 6 -8 10 -11 10 -2 0
-4 -4 -4 -10z"/>
<path d="M3836 1638 c3 -5 10 -6 15 -3 13 9 11 12 -6 12 -8 0 -12 -4 -9 -9z"/>
<path d="M4240 1640 c-9 -6 -10 -10 -3 -10 6 0 15 5 18 10 8 12 4 12 -15 0z"/>
<path d="M1960 1600 c-9 -6 -10 -10 -3 -10 6 0 15 5 18 10 8 12 4 12 -15 0z"/>
<path d="M2080 1540 c-9 -6 -10 -10 -3 -10 6 0 15 5 18 10 8 12 4 12 -15 0z"/>
<path d="M4470 1519 c0 -5 5 -7 10 -4 6 3 10 8 10 11 0 2 -4 4 -10 4 -5 0 -10
-5 -10 -11z"/>
<path d="M4050 1463 c0 -6 8 -17 18 -24 16 -13 16 -13 2 6 -8 11 -16 22 -17
24 -2 2 -3 0 -3 -6z"/>
</g>
</svg>
